<svg xmlns="http://www.w3.org/2000/svg" xmlns:xlink="http://www.w3.org/1999/xlink" viewBox="0 0 164 176"><defs><style>.a{fill:#fff;}.b{fill:#4b7c9c;}.c{clip-path:url(#a);}.d{clip-path:url(#b);}.e{clip-path:url(#c);}.f{clip-path:url(#d);}.g{clip-path:url(#e);}.h{clip-path:url(#f);}.i{clip-path:url(#g);}.j{clip-path:url(#h);}.k{clip-path:url(#i);}.l{clip-path:url(#k);}.m{clip-path:url(#m);}.n{clip-path:url(#o);}.o{clip-path:url(#q);}.p{isolation:isolate;}.q{fill:none;stroke:#4b7c9c;stroke-linecap:round;stroke-miterlimit:10;stroke-width:5px;}</style><clipPath id="a"><path class="a" d="M44.8,260.88c-10.2,2.1-17.3,8.7-19,17.9-2,10.8.1,20.5,6.3,29a2.09,2.09,0,0,0,1.6.8,1.92,1.92,0,0,0,1.2-.4,2,2,0,0,0,.5-2.8c-5.5-7.7-7.3-16.1-5.6-25.9,1.4-7.5,7.3-12.9,15.8-14.7a2.05,2.05,0,0,0,1.6-2.4,2.12,2.12,0,0,0-2.4-1.5"/></clipPath><clipPath id="b"><path class="a" d="M140.9,335.08a12.63,12.63,0,0,0-12.6,12.7,2,2,0,0,0,4,0,8.69,8.69,0,0,1,8.6-8.7,2,2,0,1,0,0-4"/></clipPath><clipPath id="c"><path class="a" d="M27.3,344a8.81,8.81,0,0,0-8.8,8.8,2,2,0,0,0,4,0,4.8,4.8,0,0,1,4.8-4.8,2,2,0,1,0,0-4"/></clipPath><clipPath id="d"><path class="a" d="M126.1,316.08a11.5,11.5,0,1,0-11.5,11.5,11.5,11.5,0,0,0,11.5-11.5m-11.5,6.38a6.38,6.38,0,1,1,6.38-6.38,6.42,6.42,0,0,1-6.38,6.38"/></clipPath><clipPath id="e"><path class="a" d="M45.2,259.38a1.7,1.7,0,0,0-.7.1c-10.8,2.2-18.3,9.3-20.1,19-2,11.2.2,21.3,6.5,30.1a3.37,3.37,0,0,0,2.8,1.4,3.06,3.06,0,0,0,2-.7,3.28,3.28,0,0,0,1.4-2.2,4,4,0,0,0-.6-2.6c-5.3-7.3-7-15.4-5.3-24.8,1.2-6.9,6.7-11.9,14.7-13.5a3.48,3.48,0,0,0,2.7-4.1,3.52,3.52,0,0,0-3.4-2.7"/></clipPath><clipPath id="f"><path class="a" d="M10.2,367a9.7,9.7,0,1,0,9.7,9.7,9.71,9.71,0,0,0-9.7-9.7m0,14.93a5.12,5.12,0,0,1-5.13-5.13,5.24,5.24,0,0,1,5.13-5.12,5.24,5.24,0,0,1,5.13,5.12,5.12,5.12,0,0,1-5.13,5.13"/></clipPath><clipPath id="g"><path class="b" d="M44.8,22c-10.2,2.1-17.3,8.7-19,17.9-2,10.8.1,20.5,6.3,29a2.09,2.09,0,0,0,1.6.8,1.92,1.92,0,0,0,1.2-.4,2,2,0,0,0,.5-2.8c-5.5-7.7-7.3-16.1-5.6-25.9,1.4-7.5,7.3-12.9,15.8-14.7a2.05,2.05,0,0,0,1.6-2.4A2.12,2.12,0,0,0,44.8,22"/></clipPath><clipPath id="h"><rect class="b" x="-215.5" y="-2127.1" width="2800" height="6362"/></clipPath><clipPath id="i"><path class="b" d="M140.9,96.2a12.63,12.63,0,0,0-12.6,12.7,2,2,0,0,0,4,0,8.69,8.69,0,0,1,8.6-8.7,2,2,0,0,0,0-4"/></clipPath><clipPath id="k"><path class="b" d="M27.3,105.1a8.81,8.81,0,0,0-8.8,8.8,2,2,0,0,0,4,0,4.8,4.8,0,0,1,4.8-4.8,2,2,0,1,0,0-4"/></clipPath><clipPath id="m"><path class="b" d="M126.1,77.2a11.5,11.5,0,1,0-11.5,11.5,11.5,11.5,0,0,0,11.5-11.5m-11.5,6.38A6.38,6.38,0,1,1,121,77.2a6.42,6.42,0,0,1-6.38,6.38"/></clipPath><clipPath id="o"><path class="b" d="M45.2,20.5a1.7,1.7,0,0,0-.7.1c-10.8,2.2-18.3,9.3-20.1,19-2,11.2.2,21.3,6.5,30.1a3.37,3.37,0,0,0,2.8,1.4,3.06,3.06,0,0,0,2-.7,3.28,3.28,0,0,0,1.4-2.2,4,4,0,0,0-.6-2.6c-5.3-7.3-7-15.4-5.3-24.8,1.2-6.9,6.7-11.9,14.7-13.5a3.48,3.48,0,0,0,2.7-4.1,3.52,3.52,0,0,0-3.4-2.7"/></clipPath><clipPath id="q"><path class="b" d="M10.2,128.1a9.7,9.7,0,1,0,9.7,9.7,9.71,9.71,0,0,0-9.7-9.7m0,14.93a5.12,5.12,0,0,1-5.13-5.13,5.24,5.24,0,0,1,5.13-5.13,5.24,5.24,0,0,1,5.13,5.13A5.12,5.12,0,0,1,10.2,143"/></clipPath></defs><title>icons</title><path class="a" d="M44.8,260.88c-10.2,2.1-17.3,8.7-19,17.9-2,10.8.1,20.5,6.3,29a2.09,2.09,0,0,0,1.6.8,1.92,1.92,0,0,0,1.2-.4,2,2,0,0,0,.5-2.8c-5.5-7.7-7.3-16.1-5.6-25.9,1.4-7.5,7.3-12.9,15.8-14.7a2.05,2.05,0,0,0,1.6-2.4,2.12,2.12,0,0,0-2.4-1.5"/><g class="c"><rect class="a" x="-215.5" y="-1888.22" width="2800" height="6362"/></g><path class="a" d="M140.9,335.08a12.63,12.63,0,0,0-12.6,12.7,2,2,0,0,0,4,0,8.69,8.69,0,0,1,8.6-8.7,2,2,0,1,0,0-4"/><g class="d"><rect class="a" x="-215.5" y="-1888.22" width="2800" height="6362"/></g><path class="a" d="M27.3,344a8.81,8.81,0,0,0-8.8,8.8,2,2,0,0,0,4,0,4.8,4.8,0,0,1,4.8-4.8,2,2,0,1,0,0-4"/><g class="e"><rect class="a" x="-215.5" y="-1888.22" width="2800" height="6362"/></g><path class="a" d="M126.1,316.08a11.5,11.5,0,1,0-11.5,11.5,11.5,11.5,0,0,0,11.5-11.5m-11.5,6.38a6.38,6.38,0,1,1,6.38-6.38,6.42,6.42,0,0,1-6.38,6.38"/><g class="f"><rect class="a" x="-215.5" y="-1888.22" width="2800" height="6362"/></g><path class="a" d="M45.2,259.38a1.7,1.7,0,0,0-.7.1c-10.8,2.2-18.3,9.3-20.1,19-2,11.2.2,21.3,6.5,30.1a3.37,3.37,0,0,0,2.8,1.4,3.06,3.06,0,0,0,2-.7,3.28,3.28,0,0,0,1.4-2.2,4,4,0,0,0-.6-2.6c-5.3-7.3-7-15.4-5.3-24.8,1.2-6.9,6.7-11.9,14.7-13.5a3.48,3.48,0,0,0,2.7-4.1,3.52,3.52,0,0,0-3.4-2.7"/><g class="g"><rect class="a" x="-215.5" y="-1888.22" width="2800" height="6362"/></g><path class="a" d="M10.2,367a9.7,9.7,0,1,0,9.7,9.7,9.71,9.71,0,0,0-9.7-9.7m0,14.93a5.12,5.12,0,0,1-5.13-5.13,5.24,5.24,0,0,1,5.13-5.12,5.24,5.24,0,0,1,5.13,5.12,5.12,5.12,0,0,1-5.13,5.13"/><g class="h"><rect class="a" x="-215.5" y="-1888.22" width="2800" height="6362"/></g><path class="b" d="M44.8,22c-10.2,2.1-17.3,8.7-19,17.9-2,10.8.1,20.5,6.3,29a2.09,2.09,0,0,0,1.6.8,1.92,1.92,0,0,0,1.2-.4,2,2,0,0,0,.5-2.8c-5.5-7.7-7.3-16.1-5.6-25.9,1.4-7.5,7.3-12.9,15.8-14.7a2.05,2.05,0,0,0,1.6-2.4A2.12,2.12,0,0,0,44.8,22"/><g class="i"><rect class="b" x="-215.5" y="-2127.1" width="2800" height="6362"/><g class="j"><rect class="b" x="15.1" y="11.9" width="42.1" height="67.7"/></g></g><path class="b" d="M140.9,96.2a12.63,12.63,0,0,0-12.6,12.7,2,2,0,0,0,4,0,8.69,8.69,0,0,1,8.6-8.7,2,2,0,0,0,0-4"/><g class="k"><rect class="b" x="-215.5" y="-2127.1" width="2800" height="6362"/><g class="j"><rect class="b" x="118.2" y="86.2" width="34.6" height="34.7"/></g></g><path class="b" d="M27.3,105.1a8.81,8.81,0,0,0-8.8,8.8,2,2,0,0,0,4,0,4.8,4.8,0,0,1,4.8-4.8,2,2,0,1,0,0-4"/><g class="l"><rect class="b" x="-215.5" y="-2127.1" width="2800" height="6362"/><g class="j"><rect class="b" x="8.5" y="95.1" width="30.8" height="30.8"/></g></g><path class="b" d="M126.1,77.2a11.5,11.5,0,1,0-11.5,11.5,11.5,11.5,0,0,0,11.5-11.5m-11.5,6.38A6.38,6.38,0,1,1,121,77.2a6.42,6.42,0,0,1-6.38,6.38"/><g class="m"><rect class="b" x="-215.5" y="-2127.1" width="2800" height="6362"/><g class="j"><rect class="b" x="93.1" y="55.7" width="43" height="43"/></g></g><path class="b" d="M45.2,20.5a1.7,1.7,0,0,0-.7.1c-10.8,2.2-18.3,9.3-20.1,19-2,11.2.2,21.3,6.5,30.1a3.37,3.37,0,0,0,2.8,1.4,3.06,3.06,0,0,0,2-.7,3.28,3.28,0,0,0,1.4-2.2,4,4,0,0,0-.6-2.6c-5.3-7.3-7-15.4-5.3-24.8,1.2-6.9,6.7-11.9,14.7-13.5a3.48,3.48,0,0,0,2.7-4.1,3.52,3.52,0,0,0-3.4-2.7"/><g class="n"><rect class="b" x="-215.5" y="-2127.1" width="2800" height="6362"/><g class="j"><rect class="b" x="13.7" y="10.5" width="45" height="70.6"/></g></g><path class="b" d="M10.2,128.1a9.7,9.7,0,1,0,9.7,9.7,9.71,9.71,0,0,0-9.7-9.7m0,14.93a5.12,5.12,0,0,1-5.13-5.13,5.24,5.24,0,0,1,5.13-5.13,5.24,5.24,0,0,1,5.13,5.13A5.12,5.12,0,0,1,10.2,143"/><g class="o"><rect class="b" x="-215.5" y="-2127.1" width="2800" height="6362"/><g class="j"><rect class="b" x="-9.5" y="118.1" width="39.5" height="39.5"/></g></g><g class="p"><path class="b" d="M140.9,86.3a24.52,24.52,0,0,0-2.7.2,11.1,11.1,0,0,1,1.6-3.9l.8-1.3c.8-1.3,1.6-2.6,2.4-3.8,7.4-9.8,10.9-20.9,10.6-34.1-.2-8.1-1.9-14.5-5.5-20.2-6.2-9.9-18.7-16.3-31.9-16.3-1.3,0-2.7.1-4,.2a54,54,0,0,0-16.7,4.3,31.85,31.85,0,0,1-13.2,2.9,30.84,30.84,0,0,1-12.4-2.7A52.83,52.83,0,0,0,48.7,6.9a46,46,0,0,0-9.1.9c-3.42.68-6.87,1.25-9.51,3.07-1.59,1.1-1.09,4,.64,4.87a7.58,7.58,0,0,0,5.27.14,37.48,37.48,0,0,1,4.8-1.28,42.34,42.34,0,0,1,7.9-.8A44.41,44.41,0,0,1,67,17.9a37.44,37.44,0,0,0,15.1,3.3A40.48,40.48,0,0,0,98,17.7,47.41,47.41,0,0,1,112.7,14c1.1-.1,2.3-.2,3.4-.2,10.8,0,21.1,5.1,26,13.1,2.9,4.6,4.3,9.9,4.4,16.7.3,11.6-2.8,21.3-9.2,29.8a41.73,41.73,0,0,0-2.9,4.4l-.7,1.2a18.54,18.54,0,0,0-2.8,9.7,22.52,22.52,0,0,0-12.6,20.2,22.78,22.78,0,0,0,10.2,18.8,72.64,72.64,0,0,1-6.6,22c-2,4-5,9-10.5,12.4a5.09,5.09,0,0,1-2,.4,3.6,3.6,0,0,1-2.2-.7c-7.7-5.1-11-32.1-11.3-47.9a14.15,14.15,0,1,0-28.3-.1c-.3,15.8-3.5,42.9-11.3,47.9a3.6,3.6,0,0,1-2.2.7,7.87,7.87,0,0,1-2-.4c-6.4-3.3-14.2-21.6-16.1-30.3-.2-.9-.3-1.7-.5-2.6a17.8,17.8,0,0,0-2.8-32.5c0-2.1,0-4.3.1-6.4v-.7a11.44,11.44,0,0,0-.7-5.3l-.3-.6a53.83,53.83,0,0,0-5.7-10.5c-8-11.1-10.6-23.3-8-37.5q.16-1,.42-1.89a3.3,3.3,0,0,0-1.29-3.51l-.07-.05A3.37,3.37,0,0,0,11.93,32c-.2.77-.38,1.56-.53,2.36-2.9,15.9.2,30.3,9.2,42.8a59.12,59.12,0,0,1,5,9.3l.3.6a6.85,6.85,0,0,1,.1,2.1V90c0,1.9-.1,3.8-.1,5.7a17.83,17.83,0,0,0,1.8,35.6,8.09,8.09,0,0,0,1.2-.1,12.86,12.86,0,0,0,.4,1.9c2.1,9.8,10.7,30.4,19.7,35l.2.1a12.16,12.16,0,0,0,4.8,1,10.82,10.82,0,0,0,6-1.8c13-8.5,14.3-46.2,14.4-53.7a7.46,7.46,0,0,1,7.1-7.4,7.38,7.38,0,0,1,7.4,7.4,195.64,195.64,0,0,0,1.9,22.8c2.4,16.6,6.6,26.9,12.5,30.8a10.82,10.82,0,0,0,6,1.8,11.82,11.82,0,0,0,4.8-1c.1-.1.3-.1.5-.2,7.2-4.3,10.9-10.5,13.3-15.4a77.09,77.09,0,0,0,7-22.2,22.37,22.37,0,0,0,28.3-21.7A22.19,22.19,0,0,0,140.9,86.3ZM27.1,124.4a10.9,10.9,0,1,1,0-21.8,9.7,9.7,0,0,1,1.7.1,10.92,10.92,0,0,1-1.7,21.7Zm113.8,0a15.6,15.6,0,1,1,15.6-15.6A15.62,15.62,0,0,1,140.9,124.4Z"/></g><path class="q" d="M26,17.4a19.75,19.75,0,0,0-7.23,9.28"/></svg>