<?xml version="1.0" encoding="utf-8"?>
<!-- Generator: Adobe Illustrator 23.0.1, SVG Export Plug-In . SVG Version: 6.00 Build 0)  -->
<svg version="1.1" id="Layer_1" xmlns="http://www.w3.org/2000/svg" xmlns:xlink="http://www.w3.org/1999/xlink" x="0px" y="0px"
	 viewBox="0 0 164 176" style="enable-background:new 0 0 164 176;" xml:space="preserve">
<style type="text/css">
	.st0{clip-path:url(#SVGID_2_);}
	.st1{clip-path:url(#SVGID_4_);}
	.st2{clip-path:url(#SVGID_6_);}
	.st3{clip-path:url(#SVGID_8_);}
	.st4{clip-path:url(#SVGID_10_);}
	.st5{clip-path:url(#SVGID_12_);}
	.st6{clip-path:url(#SVGID_14_);}
	.st7{clip-path:url(#SVGID_16_);}
	.st8{clip-path:url(#SVGID_18_);}
	.st9{clip-path:url(#SVGID_20_);}
	.st10{clip-path:url(#SVGID_22_);}
	.st11{clip-path:url(#SVGID_24_);fill:#FFFFFF;}
	.st12{clip-path:url(#SVGID_26_);}
	.st13{clip-path:url(#SVGID_28_);enable-background:new    ;}
	.st14{clip-path:url(#SVGID_30_);}
	.st15{clip-path:url(#SVGID_32_);}
	.st16{clip-path:url(#SVGID_34_);fill:#FFFFFF;}
	.st17{clip-path:url(#SVGID_36_);}
	.st18{clip-path:url(#SVGID_38_);fill:#FFFFFF;}
	.st19{clip-path:url(#SVGID_40_);}
	.st20{clip-path:url(#SVGID_42_);fill:#FFFFFF;}
	.st21{clip-path:url(#SVGID_44_);}
	.st22{clip-path:url(#SVGID_46_);fill:#FFFFFF;}
	.st23{clip-path:url(#SVGID_48_);}
	.st24{clip-path:url(#SVGID_50_);fill:#FFFFFF;}
	.st25{clip-path:url(#SVGID_52_);}
	.st26{clip-path:url(#SVGID_54_);fill:#FFFFFF;}
</style>
<g>
	<defs>
		<path id="SVGID_1_" d="M44.8,22c-10.2,2.1-17.3,8.7-19,17.9c-2,10.8,0.1,20.5,6.3,29c0.4,0.5,1,0.8,1.6,0.8c0.4,0,0.8-0.1,1.2-0.4
			c0.9-0.6,1.1-1.9,0.5-2.8c-5.5-7.7-7.3-16.1-5.6-25.9c1.4-7.5,7.3-12.9,15.8-14.7c1.1-0.2,1.8-1.3,1.6-2.4
			C46.9,22.5,45.9,21.8,44.8,22"/>
	</defs>
	<clipPath id="SVGID_2_">
		<use xlink:href="#SVGID_1_"  style="overflow:visible;"/>
	</clipPath>
	<g class="st0">
		<defs>
			<rect id="SVGID_3_" x="-215.5" y="-2127.1" width="2800" height="6362"/>
		</defs>
		<clipPath id="SVGID_4_">
			<use xlink:href="#SVGID_3_"  style="overflow:visible;"/>
		</clipPath>
		<rect x="15.1" y="11.9" class="st1" width="42.1" height="67.7"/>
	</g>
</g>
<g>
	<defs>
		<path id="SVGID_5_" d="M140.9,87.8c-1.5,0-3,0.2-4.4,0.5c0.1-2.3,0.8-4.4,2-6.4l0.8-1.3c0.8-1.4,1.6-2.7,2.5-3.9
			c7.2-9.5,10.6-20.4,10.3-33.2c-0.2-7.8-1.8-14-5.3-19.5c-6.7-10.6-20.6-16.8-34.6-15.4c-5.8,0.6-11.2,1.9-16.3,4.1
			c-9.2,4-17.9,4-26.7,0.2c-10-4.3-19.9-5.6-29.4-3.7c-14.6,2.9-24.7,12.4-27,25.4c-2.8,15.5,0.2,29.5,9,41.7
			c2.1,2.9,3.6,6.3,5.1,9.6l0.3,0.6c0.3,0.7,0.3,1.7,0.2,2.8l0,0.8c-0.1,2.4-0.1,4.7-0.1,7.1c-0.1,0-0.2,0-0.2,0
			c-9,0-16.3,7.3-16.3,16.3s7.3,16.3,16.3,16.3c1,0,2-0.1,3-0.3c0.2,1.1,0.4,2.2,0.6,3.3c2,9.3,10.4,29.7,19,34.1c0,0,0.1,0,0.1,0
			c0,0,0,0,0,0c1.5,0.6,2.9,0.9,4.3,0.9c1.8,0,3.6-0.5,5.2-1.6C72,158,73,118.4,73.1,113.9c0-4.7,4-8.8,8.6-8.8c4.9,0,8.8,4,8.8,8.9
			c0,0.1,0.2,11,1.9,22.7c2.3,16.1,6.3,26.1,11.9,29.8c1.6,1.1,3.4,1.6,5.2,1.6c1.4,0,2.8-0.3,4.3-0.9c0.1,0,0.2-0.1,0.3-0.1
			c6.9-4.1,10.4-10.1,12.8-14.8c3.4-6.9,5.8-14.6,7.1-23.4c2.2,0.8,4.5,1.2,7,1.2c11.6,0,21-9.4,21-21
			C161.9,97.2,152.5,87.8,140.9,87.8 M14.8,113.5c0-6.8,5.5-12.3,12.3-12.3c0.6,0,1.3,0,1.9,0.1c5.9,0.9,10.4,6.2,10.4,12.2
			c0,6.8-5.5,12.3-12.3,12.3C20.3,125.9,14.8,120.3,14.8,113.5 M123.2,150.3c-2.1,4.2-5.2,9.5-11.1,13.1c-2.1,0.9-3.9,0.7-5.6-0.4
			c-9.2-6.1-11.8-37.5-11.9-49.1c0-7.1-5.8-12.8-12.8-12.8c-6.8,0-12.6,5.9-12.6,12.8c-0.2,11.6-2.7,43.1-11.9,49.1
			c-1.7,1.1-3.5,1.2-5.7,0.4c-7-3.6-15-22.6-16.8-31.3c-0.3-1.2-0.5-2.5-0.7-3.7c5.6-2.6,9.5-8.3,9.5-14.8c0-7.5-5-13.9-12.1-15.8
			c0-2.5,0-5,0.1-7.6l0-0.7c0.1-1.4,0.1-3.1-0.6-4.6l-0.3-0.6c-1.6-3.5-3.2-7-5.5-10.3c-8.2-11.4-10.9-24.1-8.3-38.6
			c2.1-11.3,11-19.6,23.9-22.2c8.8-1.8,17.7-0.7,27,3.4c9.8,4.3,19.6,4.2,29.9-0.2c4.7-2,9.7-3.3,15.1-3.8
			c12.6-1.2,24.9,4.2,30.8,13.6c3,4.8,4.5,10.3,4.6,17.4c0.3,11.9-2.8,21.9-9.5,30.7c-1.1,1.4-1.9,2.9-2.8,4.3l-0.7,1.2
			c-1.8,3-2.7,6.3-2.6,9.8c-7.4,3.3-12.6,10.7-12.6,19.3c0,7.7,4.2,14.4,10.3,18.1C128.9,135.8,126.6,143.5,123.2,150.3
			 M140.9,125.9c-9.4,0-17-7.6-17-17s7.6-17,17-17c9.4,0,17,7.6,17,17S150.3,125.9,140.9,125.9"/>
	</defs>
	<clipPath id="SVGID_6_">
		<use xlink:href="#SVGID_5_"  style="overflow:visible;"/>
	</clipPath>
	<g class="st2">
		<defs>
			<rect id="SVGID_7_" x="-215.5" y="-2127.1" width="2800" height="6362"/>
		</defs>
		<clipPath id="SVGID_8_">
			<use xlink:href="#SVGID_7_"  style="overflow:visible;"/>
		</clipPath>
		<rect x="0.8" y="-1.6" class="st3" width="171.2" height="179.5"/>
	</g>
</g>
<g>
	<defs>
		<path id="SVGID_9_" d="M140.9,96.2c-7,0-12.6,5.7-12.6,12.7c0,1.1,0.9,2,2,2c1.1,0,2-0.9,2-2c0-4.8,3.9-8.7,8.6-8.7
			c1.1,0,2-0.9,2-2C142.9,97.1,142,96.2,140.9,96.2"/>
	</defs>
	<clipPath id="SVGID_10_">
		<use xlink:href="#SVGID_9_"  style="overflow:visible;"/>
	</clipPath>
	<g class="st4">
		<defs>
			<rect id="SVGID_11_" x="-215.5" y="-2127.1" width="2800" height="6362"/>
		</defs>
		<clipPath id="SVGID_12_">
			<use xlink:href="#SVGID_11_"  style="overflow:visible;"/>
		</clipPath>
		<rect x="118.2" y="86.2" class="st5" width="34.6" height="34.7"/>
	</g>
</g>
<g>
	<defs>
		<path id="SVGID_13_" d="M27.3,105.1c-4.8,0-8.8,3.9-8.8,8.8c0,1.1,0.9,2,2,2s2-0.9,2-2c0-2.6,2.1-4.8,4.8-4.8c1.1,0,2-0.9,2-2
			S28.4,105.1,27.3,105.1"/>
	</defs>
	<clipPath id="SVGID_14_">
		<use xlink:href="#SVGID_13_"  style="overflow:visible;"/>
	</clipPath>
	<g class="st6">
		<defs>
			<rect id="SVGID_15_" x="-215.5" y="-2127.1" width="2800" height="6362"/>
		</defs>
		<clipPath id="SVGID_16_">
			<use xlink:href="#SVGID_15_"  style="overflow:visible;"/>
		</clipPath>
		<rect x="8.5" y="95.1" class="st7" width="30.8" height="30.8"/>
	</g>
</g>
<g>
	<defs>
		<path id="SVGID_17_" d="M126.1,77.2c0-6.4-5.2-11.5-11.5-11.5c-6.4,0-11.5,5.2-11.5,11.5c0,6.4,5.2,11.5,11.5,11.5
			C121,88.7,126.1,83.5,126.1,77.2 M114.6,84.7c-4.1,0-7.5-3.4-7.5-7.5c0-4.1,3.4-7.5,7.5-7.5c4.1,0,7.5,3.4,7.5,7.5
			C122.1,81.3,118.8,84.7,114.6,84.7"/>
	</defs>
	<clipPath id="SVGID_18_">
		<use xlink:href="#SVGID_17_"  style="overflow:visible;"/>
	</clipPath>
	<g class="st8">
		<defs>
			<rect id="SVGID_19_" x="-215.5" y="-2127.1" width="2800" height="6362"/>
		</defs>
		<clipPath id="SVGID_20_">
			<use xlink:href="#SVGID_19_"  style="overflow:visible;"/>
		</clipPath>
		<rect x="93.1" y="55.7" class="st9" width="43" height="43"/>
	</g>
</g>
<g>
	<defs>
		<path id="SVGID_21_" d="M45.2,20.5c-0.2,0-0.5,0-0.7,0.1c-10.8,2.2-18.3,9.3-20.1,19c-2,11.2,0.2,21.3,6.5,30.1
			c0.6,0.9,1.7,1.4,2.8,1.4c0.7,0,1.4-0.2,2-0.7c0.8-0.5,1.2-1.3,1.4-2.2c0.1-0.9-0.1-1.8-0.6-2.6c-5.3-7.3-7-15.4-5.3-24.8
			c1.2-6.9,6.7-11.9,14.7-13.5c0.9-0.2,1.7-0.7,2.2-1.5c0.5-0.8,0.7-1.7,0.5-2.6C48.2,21.6,46.8,20.5,45.2,20.5"/>
	</defs>
	<clipPath id="SVGID_22_">
		<use xlink:href="#SVGID_21_"  style="overflow:visible;"/>
	</clipPath>
	<g class="st10">
		<defs>
			<rect id="SVGID_23_" x="-215.5" y="-2127.1" width="2800" height="6362"/>
		</defs>
		<clipPath id="SVGID_24_">
			<use xlink:href="#SVGID_23_"  style="overflow:visible;"/>
		</clipPath>
		<rect x="13.7" y="10.5" class="st11" width="45" height="70.6"/>
	</g>
</g>
<g>
	<defs>
		<rect id="SVGID_25_" x="9.3" y="6.9" width="154.1" height="162.4"/>
	</defs>
	<clipPath id="SVGID_26_">
		<use xlink:href="#SVGID_25_"  style="overflow:visible;"/>
	</clipPath>
	<g class="st12">
		<defs>
			<rect id="SVGID_27_" x="-215.5" y="-2127.1" width="2800" height="6362"/>
		</defs>
		<clipPath id="SVGID_28_">
			<use xlink:href="#SVGID_27_"  style="overflow:visible;"/>
		</clipPath>
		<g class="st13">
			<g>
				<defs>
					<rect id="SVGID_29_" x="8.5" y="6.9" width="156" height="164"/>
				</defs>
				<clipPath id="SVGID_30_">
					<use xlink:href="#SVGID_29_"  style="overflow:visible;"/>
				</clipPath>
				<g class="st14">
					<defs>
						<path id="SVGID_31_" d="M140.9,86.3c-0.9,0-1.8,0.1-2.7,0.2c0.3-1.4,0.8-2.7,1.6-3.9l0.8-1.3c0.8-1.3,1.6-2.6,2.4-3.8
							c7.4-9.8,10.9-20.9,10.6-34.1c-0.2-8.1-1.9-14.5-5.5-20.2c-6.2-9.9-18.7-16.3-31.9-16.3c-1.3,0-2.7,0.1-4,0.2
							c-6,0.6-11.5,2-16.7,4.3c-4.5,2-8.8,2.9-13.2,2.9c-4.2,0-8.2-0.9-12.4-2.7c-7.1-3.1-14.2-4.7-21.2-4.7c-3.1,0-6.1,0.3-9.1,0.9
							c-15.2,3-25.7,13-28.2,26.6c-2.9,15.9,0.2,30.3,9.2,42.8c2,2.8,3.5,6.1,5,9.3l0.3,0.6c0.2,0.4,0.1,1.4,0.1,2.1l0,0.8
							c0,1.9-0.1,3.8-0.1,5.7c-9.2,0.6-16.6,8.3-16.6,17.8c0,9.8,8,17.8,17.8,17.8c0.6,0,1.2,0,1.8-0.1c0.1,0.6,0.2,1.3,0.4,1.9
							c2.1,9.8,10.7,30.4,19.7,35l0,0l0.2,0.1c1.6,0.7,3.3,1,4.8,1c2.1,0,4.2-0.6,6-1.8c13-8.5,14.3-46.2,14.4-53.7
							c0-3.9,3.3-7.4,7.1-7.4c4.1,0,7.4,3.3,7.4,7.4c0,0.5,0.2,11.2,1.9,22.8c2.4,16.6,6.6,26.9,12.5,30.8c1.8,1.2,3.9,1.8,6,1.8
							c1.6,0,3.2-0.3,4.8-1c0.1-0.1,0.3-0.1,0.5-0.2c7.2-4.3,10.9-10.5,13.3-15.4c3.3-6.6,5.6-13.8,7-22.2c1.9,0.5,3.8,0.8,5.8,0.8
							c12.4,0,22.5-10.1,22.5-22.5C163.4,96.4,153.3,86.3,140.9,86.3 M27.1,124.4c-6,0-10.9-4.9-10.9-10.9c0-6,4.9-10.9,10.9-10.9
							c0.6,0,1.1,0,1.7,0.1c5.2,0.8,9.2,5.4,9.2,10.8C38,119.5,33.1,124.4,27.1,124.4 M121.9,149.7c-2,4-5,9-10.5,12.4
							c-0.7,0.3-1.4,0.4-2,0.4c-0.8,0-1.5-0.2-2.2-0.7c-7.7-5.1-11-32.1-11.3-47.9c0-7.9-6.4-14.3-14.3-14.3c-7.6,0-14,6.5-14,14.2
							c-0.3,15.8-3.5,42.9-11.3,47.9c-0.7,0.5-1.4,0.7-2.2,0.7c-0.6,0-1.3-0.2-2-0.4c-6.4-3.3-14.2-21.6-16.1-30.3
							c-0.2-0.9-0.3-1.7-0.5-2.6c5.7-3.1,9.3-9.1,9.3-15.6c0-7.7-4.9-14.5-12.1-16.9c0-2.1,0-4.3,0.1-6.4l0-0.7
							c0.1-1.5,0.1-3.4-0.7-5.3l-0.3-0.6c-1.6-3.5-3.2-7.2-5.7-10.5c-8-11.1-10.6-23.3-8-37.5c1.9-10.7,10.4-18.6,22.7-21
							c2.6-0.5,5.3-0.8,7.9-0.8c6,0,12,1.3,18.3,4.1c5,2.2,10.1,3.3,15.1,3.3c5.2,0,10.5-1.2,15.9-3.5c4.6-2,9.4-3.2,14.7-3.7
							c1.1-0.1,2.3-0.2,3.4-0.2c10.8,0,21.1,5.1,26,13.1c2.9,4.6,4.3,9.9,4.4,16.7c0.3,11.6-2.8,21.3-9.2,29.8
							c-1.1,1.4-2,2.9-2.9,4.4l-0.7,1.2c-1.8,3-2.8,6.2-2.8,9.7c-7.7,3.8-12.6,11.6-12.6,20.2c0,7.5,3.9,14.6,10.2,18.8
							C127.3,136,125.1,143.2,121.9,149.7 M140.9,124.4c-8.6,0-15.6-7-15.6-15.6c0-8.6,7-15.6,15.6-15.6c8.6,0,15.6,7,15.6,15.6
							C156.5,117.4,149.5,124.4,140.9,124.4"/>
					</defs>
					<clipPath id="SVGID_32_">
						<use xlink:href="#SVGID_31_"  style="overflow:visible;"/>
					</clipPath>
					<g class="st15">
						<defs>
							<rect id="SVGID_33_" x="8.5" y="6.9" width="156" height="164"/>
						</defs>
						<clipPath id="SVGID_34_">
							<use xlink:href="#SVGID_33_"  style="overflow:visible;"/>
						</clipPath>
						<rect x="-0.7" y="-3.1" class="st16" width="174.1" height="182.4"/>
					</g>
				</g>
			</g>
		</g>
	</g>
</g>
<g>
	<defs>
		<path id="SVGID_35_" d="M140.9,94.7c-7.8,0-14.1,6.3-14.1,14.1c0,1.9,1.6,3.5,3.5,3.5c1.9,0,3.5-1.6,3.5-3.5c0-4,3.2-7.2,7.2-7.2
			c1.9,0,3.5-1.5,3.5-3.5C144.3,96.3,142.8,94.7,140.9,94.7"/>
	</defs>
	<clipPath id="SVGID_36_">
		<use xlink:href="#SVGID_35_"  style="overflow:visible;"/>
	</clipPath>
	<g class="st17">
		<defs>
			<rect id="SVGID_37_" x="-215.5" y="-2127.1" width="2800" height="6362"/>
		</defs>
		<clipPath id="SVGID_38_">
			<use xlink:href="#SVGID_37_"  style="overflow:visible;"/>
		</clipPath>
		<rect x="116.8" y="84.7" class="st18" width="37.6" height="37.6"/>
	</g>
</g>
<g>
	<defs>
		<path id="SVGID_39_" d="M27.3,103.7c-5.6,0-10.2,4.6-10.2,10.2c0,1.9,1.6,3.5,3.5,3.5s3.5-1.6,3.5-3.5c0-1.8,1.5-3.3,3.3-3.3
			c1.9,0,3.5-1.6,3.5-3.5C30.8,105.2,29.2,103.7,27.3,103.7"/>
	</defs>
	<clipPath id="SVGID_40_">
		<use xlink:href="#SVGID_39_"  style="overflow:visible;"/>
	</clipPath>
	<g class="st19">
		<defs>
			<rect id="SVGID_41_" x="-215.5" y="-2127.1" width="2800" height="6362"/>
		</defs>
		<clipPath id="SVGID_42_">
			<use xlink:href="#SVGID_41_"  style="overflow:visible;"/>
		</clipPath>
		<rect x="7.1" y="93.7" class="st20" width="33.7" height="33.7"/>
	</g>
</g>
<g>
	<defs>
		<path id="SVGID_43_" d="M127.6,77.2c0-7.2-5.8-13-13-13s-13,5.8-13,13s5.8,13,13,13S127.6,84.3,127.6,77.2 M114.6,83.2
			c-3.3,0-6.1-2.7-6.1-6.1s2.7-6.1,6.1-6.1c3.3,0,6.1,2.7,6.1,6.1S118,83.2,114.6,83.2"/>
	</defs>
	<clipPath id="SVGID_44_">
		<use xlink:href="#SVGID_43_"  style="overflow:visible;"/>
	</clipPath>
	<g class="st21">
		<defs>
			<rect id="SVGID_45_" x="-215.5" y="-2127.1" width="2800" height="6362"/>
		</defs>
		<clipPath id="SVGID_46_">
			<use xlink:href="#SVGID_45_"  style="overflow:visible;"/>
		</clipPath>
		<rect x="91.6" y="54.2" class="st22" width="46" height="45.9"/>
	</g>
</g>
<g>
	<defs>
		<path id="SVGID_47_" d="M10.2,128.1c-5.4,0-9.7,4.4-9.7,9.7c0,5.4,4.4,9.7,9.7,9.7s9.7-4.4,9.7-9.7
			C20,132.5,15.6,128.1,10.2,128.1 M10.2,140.7c-1.6,0-2.8-1.3-2.8-2.8s1.3-2.8,2.8-2.8s2.8,1.3,2.8,2.8S11.8,140.7,10.2,140.7"/>
	</defs>
	<clipPath id="SVGID_48_">
		<use xlink:href="#SVGID_47_"  style="overflow:visible;"/>
	</clipPath>
	<g class="st23">
		<defs>
			<rect id="SVGID_49_" x="-215.5" y="-2127.1" width="2800" height="6362"/>
		</defs>
		<clipPath id="SVGID_50_">
			<use xlink:href="#SVGID_49_"  style="overflow:visible;"/>
		</clipPath>
		<rect x="-9.5" y="118.1" class="st24" width="39.5" height="39.5"/>
	</g>
</g>
<g>
	<defs>
		<path id="SVGID_51_" d="M18.5,137.8c0-4.6-3.7-8.3-8.3-8.3s-8.3,3.7-8.3,8.3c0,4.6,3.7,8.3,8.3,8.3S18.5,142.4,18.5,137.8
			 M10.2,142.1c-2.4,0-4.3-1.9-4.3-4.3s1.9-4.3,4.3-4.3s4.3,1.9,4.3,4.3S12.6,142.1,10.2,142.1"/>
	</defs>
	<clipPath id="SVGID_52_">
		<use xlink:href="#SVGID_51_"  style="overflow:visible;"/>
	</clipPath>
	<g class="st25">
		<defs>
			<rect id="SVGID_53_" x="-215.5" y="-2127.1" width="2800" height="6362"/>
		</defs>
		<clipPath id="SVGID_54_">
			<use xlink:href="#SVGID_53_"  style="overflow:visible;"/>
		</clipPath>
		<rect x="-8.1" y="119.6" class="st26" width="36.6" height="36.6"/>
	</g>
</g>
</svg>
