<svg xmlns="http://www.w3.org/2000/svg" xmlns:xlink="http://www.w3.org/1999/xlink" viewBox="0 0 164 176"><defs><style>.a{fill:#fff;}.b{fill:#4b7c9c;}.c{clip-path:url(#a);}.d{clip-path:url(#b);}.e{clip-path:url(#c);}.f{clip-path:url(#d);}.g{clip-path:url(#e);}.h{clip-path:url(#f);}.i{fill:none;stroke:#4b7c9c;stroke-linecap:round;stroke-miterlimit:10;stroke-width:5px;}.j{clip-path:url(#g);}.k{clip-path:url(#h);}.l{clip-path:url(#i);}.m{clip-path:url(#j);}.n{clip-path:url(#k);}.o{clip-path:url(#l);}</style><clipPath id="a"><path class="a" d="M-327.9,260.88c-10.2,2.1-17.3,8.7-19,17.9-2,10.8.1,20.5,6.3,29a2.09,2.09,0,0,0,1.6.8,1.92,1.92,0,0,0,1.2-.4,2,2,0,0,0,.5-2.8c-5.5-7.7-7.3-16.1-5.6-25.9,1.4-7.5,7.3-12.9,15.8-14.7a2.05,2.05,0,0,0,1.6-2.4,2.12,2.12,0,0,0-2.4-1.5"/></clipPath><clipPath id="b"><path class="a" d="M-231.8,335.08a12.63,12.63,0,0,0-12.6,12.7,2,2,0,0,0,2,2,2,2,0,0,0,2-2,8.69,8.69,0,0,1,8.6-8.7,2,2,0,0,0,2-2,2,2,0,0,0-2-2"/></clipPath><clipPath id="c"><path class="a" d="M-345.4,344a8.81,8.81,0,0,0-8.8,8.8,2,2,0,0,0,2,2,2,2,0,0,0,2-2,4.8,4.8,0,0,1,4.8-4.8,2,2,0,0,0,2-2,2,2,0,0,0-2-2"/></clipPath><clipPath id="d"><path class="a" d="M-246.6,316.08a11.5,11.5,0,0,0-11.5-11.5,11.5,11.5,0,0,0-11.5,11.5,11.5,11.5,0,0,0,11.5,11.5,11.5,11.5,0,0,0,11.5-11.5m-11.5,6.38a6.43,6.43,0,0,1-6.38-6.38,6.43,6.43,0,0,1,6.38-6.37,6.42,6.42,0,0,1,6.38,6.37,6.37,6.37,0,0,1-6.38,6.38"/></clipPath><clipPath id="e"><path class="a" d="M-327.5,259.38a1.7,1.7,0,0,0-.7.1c-10.8,2.2-18.3,9.3-20.1,19-2,11.2.2,21.3,6.5,30.1A3.37,3.37,0,0,0-339,310a3.06,3.06,0,0,0,2-.7,3.28,3.28,0,0,0,1.4-2.2,4,4,0,0,0-.6-2.6c-5.3-7.3-7-15.4-5.3-24.8,1.2-6.9,6.7-11.9,14.7-13.5a3.41,3.41,0,0,0,2.2-1.5,3.44,3.44,0,0,0,.5-2.6,3.52,3.52,0,0,0-3.4-2.7"/></clipPath><clipPath id="f"><path class="a" d="M-362.5,367a9.71,9.71,0,0,0-9.7,9.7,9.71,9.71,0,0,0,9.7,9.7,9.77,9.77,0,0,0,9.7-9.7,9.65,9.65,0,0,0-9.7-9.7m0,14.93a5.11,5.11,0,0,1-5.12-5.13,5.24,5.24,0,0,1,5.12-5.12,5.24,5.24,0,0,1,5.13,5.12,5.12,5.12,0,0,1-5.13,5.13"/></clipPath><clipPath id="g"><path class="b" d="M-327.9,22c-10.2,2.1-17.3,8.7-19,17.9-2,10.8.1,20.5,6.3,29a2.09,2.09,0,0,0,1.6.8,1.92,1.92,0,0,0,1.2-.4,2,2,0,0,0,.5-2.8c-5.5-7.7-7.3-16.1-5.6-25.9,1.4-7.5,7.3-12.9,15.8-14.7a2.05,2.05,0,0,0,1.6-2.4,2.12,2.12,0,0,0-2.4-1.5"/></clipPath><clipPath id="h"><path class="b" d="M-231.8,96.2a12.63,12.63,0,0,0-12.6,12.7,2,2,0,0,0,2,2,2,2,0,0,0,2-2,8.69,8.69,0,0,1,8.6-8.7,2,2,0,0,0,2-2,2,2,0,0,0-2-2"/></clipPath><clipPath id="i"><path class="b" d="M-345.4,105.1a8.81,8.81,0,0,0-8.8,8.8,2,2,0,0,0,2,2,2,2,0,0,0,2-2,4.8,4.8,0,0,1,4.8-4.8,2,2,0,0,0,2-2,2,2,0,0,0-2-2"/></clipPath><clipPath id="j"><path class="b" d="M-246.6,77.2a11.5,11.5,0,0,0-11.5-11.5,11.5,11.5,0,0,0-11.5,11.5,11.5,11.5,0,0,0,11.5,11.5,11.5,11.5,0,0,0,11.5-11.5m-11.5,6.38a6.43,6.43,0,0,1-6.38-6.38,6.43,6.43,0,0,1,6.38-6.38,6.42,6.42,0,0,1,6.38,6.38,6.37,6.37,0,0,1-6.38,6.38"/></clipPath><clipPath id="k"><path class="b" d="M-327.5,20.5a1.7,1.7,0,0,0-.7.1c-10.8,2.2-18.3,9.3-20.1,19-2,11.2.2,21.3,6.5,30.1a3.37,3.37,0,0,0,2.8,1.4,3.06,3.06,0,0,0,2-.7,3.28,3.28,0,0,0,1.4-2.2,4,4,0,0,0-.6-2.6c-5.3-7.3-7-15.4-5.3-24.8,1.2-6.9,6.7-11.9,14.7-13.5a3.41,3.41,0,0,0,2.2-1.5,3.44,3.44,0,0,0,.5-2.6,3.52,3.52,0,0,0-3.4-2.7"/></clipPath><clipPath id="l"><path class="b" d="M-362.5,128.1a9.71,9.71,0,0,0-9.7,9.7,9.71,9.71,0,0,0,9.7,9.7,9.77,9.77,0,0,0,9.7-9.7,9.65,9.65,0,0,0-9.7-9.7m0,14.93a5.11,5.11,0,0,1-5.12-5.13,5.24,5.24,0,0,1,5.12-5.13,5.24,5.24,0,0,1,5.13,5.13A5.12,5.12,0,0,1-362.5,143"/></clipPath></defs><title>icons</title><path class="a" d="M-327.9,260.88c-10.2,2.1-17.3,8.7-19,17.9-2,10.8.1,20.5,6.3,29a2.09,2.09,0,0,0,1.6.8,1.92,1.92,0,0,0,1.2-.4,2,2,0,0,0,.5-2.8c-5.5-7.7-7.3-16.1-5.6-25.9,1.4-7.5,7.3-12.9,15.8-14.7a2.05,2.05,0,0,0,1.6-2.4,2.12,2.12,0,0,0-2.4-1.5"/><g class="c"><rect class="a" x="-588.2" y="-1888.22" width="2800" height="6362"/></g><path class="a" d="M-231.8,335.08a12.63,12.63,0,0,0-12.6,12.7,2,2,0,0,0,2,2,2,2,0,0,0,2-2,8.69,8.69,0,0,1,8.6-8.7,2,2,0,0,0,2-2,2,2,0,0,0-2-2"/><g class="d"><rect class="a" x="-588.2" y="-1888.22" width="2800" height="6362"/></g><path class="a" d="M-345.4,344a8.81,8.81,0,0,0-8.8,8.8,2,2,0,0,0,2,2,2,2,0,0,0,2-2,4.8,4.8,0,0,1,4.8-4.8,2,2,0,0,0,2-2,2,2,0,0,0-2-2"/><g class="e"><rect class="a" x="-588.2" y="-1888.22" width="2800" height="6362"/></g><path class="a" d="M-246.6,316.08a11.5,11.5,0,0,0-11.5-11.5,11.5,11.5,0,0,0-11.5,11.5,11.5,11.5,0,0,0,11.5,11.5,11.5,11.5,0,0,0,11.5-11.5m-11.5,6.38a6.43,6.43,0,0,1-6.38-6.38,6.43,6.43,0,0,1,6.38-6.37,6.42,6.42,0,0,1,6.38,6.37,6.37,6.37,0,0,1-6.38,6.38"/><g class="f"><rect class="a" x="-588.2" y="-1888.22" width="2800" height="6362"/></g><path class="a" d="M-327.5,259.38a1.7,1.7,0,0,0-.7.1c-10.8,2.2-18.3,9.3-20.1,19-2,11.2.2,21.3,6.5,30.1A3.37,3.37,0,0,0-339,310a3.06,3.06,0,0,0,2-.7,3.28,3.28,0,0,0,1.4-2.2,4,4,0,0,0-.6-2.6c-5.3-7.3-7-15.4-5.3-24.8,1.2-6.9,6.7-11.9,14.7-13.5a3.41,3.41,0,0,0,2.2-1.5,3.44,3.44,0,0,0,.5-2.6,3.52,3.52,0,0,0-3.4-2.7"/><g class="g"><rect class="a" x="-588.2" y="-1888.22" width="2800" height="6362"/></g><path class="a" d="M-362.5,367a9.71,9.71,0,0,0-9.7,9.7,9.71,9.71,0,0,0,9.7,9.7,9.77,9.77,0,0,0,9.7-9.7,9.65,9.65,0,0,0-9.7-9.7m0,14.93a5.11,5.11,0,0,1-5.12-5.13,5.24,5.24,0,0,1,5.12-5.12,5.24,5.24,0,0,1,5.13,5.12,5.12,5.12,0,0,1-5.13,5.13"/><g class="h"><rect class="a" x="-588.2" y="-1888.22" width="2800" height="6362"/></g><path class="b" d="M160.55,72.16c-11.4-15.82-34.28-24.55-46.91-28.35a30.65,30.65,0,0,0-8.87-1.37c-5.57,0-9.86,1.7-13.64,3.2-2.92,1.16-5.44,2.16-8,2.16a8.87,8.87,0,0,1-3.22-.59l-.1,0A27.6,27.6,0,0,1,76.76,46c-3.39-1.4-8.51-3.52-14.88-3.52a30.28,30.28,0,0,0-8.72,1.31A146.75,146.75,0,0,0,38.84,49c-2.21,2.11-.31,5.79,2.86,4.48,4.82-2,9.34-3.51,13-4.6a24.72,24.72,0,0,1,7.21-1.1c5,0,9.16,1.64,12.8,3.09,1.2.48,2.34.93,3.41,1.29a14.2,14.2,0,0,0,5.09,1c3.37,0,6.41-1.19,9.63-2.46,3.63-1.42,7.38-2.9,12.08-2.9a24.78,24.78,0,0,1,7.25,1.13c26.87,8.08,46.2,23.39,44.58,29.1-3.18,11.18-17.88,47.65-73.31,47.65S13.27,89.11,10.08,77.93a3.16,3.16,0,0,1,.42-2.71c4.1-5.7,9.92-10.41,16.21-14.27,2.34-2.33-.05-4.93-2.65-4.51-6.85,4.19-13.25,9.39-17.81,15.72a8.45,8.45,0,0,0-1.2,7.21C8.49,91.44,24.3,130.82,83.4,130.82s74.91-39.38,78.35-51.45A8.48,8.48,0,0,0,160.55,72.16Z"/><path class="b" d="M89.33,99.2a6.81,6.81,0,0,0,.7,0c.29,0,.33,0,1.2-.08,48.32-.93,61.32-10.54,63.51-18.67a4.88,4.88,0,0,0-.86-4.25c-2.47-3.22-4.91-1.53-12.83-.88-25.39,2.07-52.3-1.75-61.82-.9C16.05,78.91,16.92,71,12.91,76.23a4.87,4.87,0,0,0-.85,4.26C17.08,99.2,70.12,99.47,89.33,99.2ZM27.09,87.92c-1.79-.36-4.25.33-4.59-1.67l-1.38-8.12c2.42.31,4.63.49,6.77.63,0,3.08,2.74,9.16-.64,9.16v1.4h0Zm13-8.76C40,92.83,41.4,90.5,34.28,89.8c-2.07-.32-1.23-2.49-3-10.86C34.69,79.09,39.5,79.15,40.05,79.16Zm18.43-.33c-1,6.68,1.47,14.87-4.14,14.87-3.08-.46-10.13,1.69-10.33-3.53l-.39-11C46.91,79.14,53,79,58.48,78.83Zm46.41-.14c-.61,7.41,2.61,15.92-3.49,16.45-9.67.69-9.13.78-11.81.82-5.64-.66-2.94-8.2-4.16-18.32C88.19,77.74,96,78.31,104.89,78.69Zm18.27.47-.38,11c-.14,5.21-7.47,3.07-10.33,3.51a3.68,3.68,0,0,1-3.66-3.5l-.48-11.37C113.69,79,118.87,79.13,123.16,79.16Zm12.29-.22-1.54,9.47c-.3,1.87-2.52,1.34-5.3,2-3.49.61-1.27-6.08-1.88-11.3C127.61,79.15,132.31,79.08,135.45,78.94Zm10.23-.81-1.36,8.12c-.34,2-2.94,1.33-4.63,1.67l-.13,1.39h0v-1.4c-3.31,0-.57-6-.61-9.16C141,78.62,143.24,78.44,145.68,78.13ZM107.39,94.72c.15.16.29.31.45.45l-.79.07A5.8,5.8,0,0,0,107.39,94.72Zm18.06-2,.3.2-.43.08C125.36,93,125.41,92.87,125.45,92.77Zm11.23-2.54a.53.53,0,0,0,.1.06l-.14,0S136.66,90.27,136.68,90.23ZM81.39,77.64C80.14,87.81,82.85,95.27,77.18,96c-2.41,0-2.92-.18-11.78-.82-6.09-.52-2.89-9.2-3.5-16.45C69,78.39,78.14,77.76,81.39,77.64ZM30.11,90.24a.38.38,0,0,1,0,.1l-.12,0Zm11.23,2.53c0,.1.09.19.13.28L41,93ZM59.41,94.7a6.33,6.33,0,0,0,.36.54L59,95.17C59.11,95,59.26,94.86,59.41,94.7ZM82.77,96a6.5,6.5,0,0,0,.62-1.13A7.24,7.24,0,0,0,84,96Zm65.07-11.16,1.2-7.22C152.79,76.93,152.5,81.05,147.84,84.84ZM17.75,77.62,19,84.86C14.31,81.08,14,76.93,17.75,77.62Z"/><line class="i" x1="30.76" y1="56.14" x2="35.05" y2="53.74"/><path class="b" d="M-327.9,22c-10.2,2.1-17.3,8.7-19,17.9-2,10.8.1,20.5,6.3,29a2.09,2.09,0,0,0,1.6.8,1.92,1.92,0,0,0,1.2-.4,2,2,0,0,0,.5-2.8c-5.5-7.7-7.3-16.1-5.6-25.9,1.4-7.5,7.3-12.9,15.8-14.7a2.05,2.05,0,0,0,1.6-2.4,2.12,2.12,0,0,0-2.4-1.5"/><g class="j"><rect class="b" x="-588.2" y="-2127.1" width="2800" height="6362"/></g><path class="b" d="M-231.8,96.2a12.63,12.63,0,0,0-12.6,12.7,2,2,0,0,0,2,2,2,2,0,0,0,2-2,8.69,8.69,0,0,1,8.6-8.7,2,2,0,0,0,2-2,2,2,0,0,0-2-2"/><g class="k"><rect class="b" x="-588.2" y="-2127.1" width="2800" height="6362"/></g><path class="b" d="M-345.4,105.1a8.81,8.81,0,0,0-8.8,8.8,2,2,0,0,0,2,2,2,2,0,0,0,2-2,4.8,4.8,0,0,1,4.8-4.8,2,2,0,0,0,2-2,2,2,0,0,0-2-2"/><g class="l"><rect class="b" x="-588.2" y="-2127.1" width="2800" height="6362"/></g><path class="b" d="M-246.6,77.2a11.5,11.5,0,0,0-11.5-11.5,11.5,11.5,0,0,0-11.5,11.5,11.5,11.5,0,0,0,11.5,11.5,11.5,11.5,0,0,0,11.5-11.5m-11.5,6.38a6.43,6.43,0,0,1-6.38-6.38,6.43,6.43,0,0,1,6.38-6.38,6.42,6.42,0,0,1,6.38,6.38,6.37,6.37,0,0,1-6.38,6.38"/><g class="m"><rect class="b" x="-588.2" y="-2127.1" width="2800" height="6362"/></g><path class="b" d="M-327.5,20.5a1.7,1.7,0,0,0-.7.1c-10.8,2.2-18.3,9.3-20.1,19-2,11.2.2,21.3,6.5,30.1a3.37,3.37,0,0,0,2.8,1.4,3.06,3.06,0,0,0,2-.7,3.28,3.28,0,0,0,1.4-2.2,4,4,0,0,0-.6-2.6c-5.3-7.3-7-15.4-5.3-24.8,1.2-6.9,6.7-11.9,14.7-13.5a3.41,3.41,0,0,0,2.2-1.5,3.44,3.44,0,0,0,.5-2.6,3.52,3.52,0,0,0-3.4-2.7"/><g class="n"><rect class="b" x="-588.2" y="-2127.1" width="2800" height="6362"/></g><path class="b" d="M-362.5,128.1a9.71,9.71,0,0,0-9.7,9.7,9.71,9.71,0,0,0,9.7,9.7,9.77,9.77,0,0,0,9.7-9.7,9.65,9.65,0,0,0-9.7-9.7m0,14.93a5.11,5.11,0,0,1-5.12-5.13,5.24,5.24,0,0,1,5.12-5.13,5.24,5.24,0,0,1,5.13,5.13A5.12,5.12,0,0,1-362.5,143"/><g class="o"><rect class="b" x="-588.2" y="-2127.1" width="2800" height="6362"/></g></svg>