<svg xmlns="http://www.w3.org/2000/svg" xmlns:xlink="http://www.w3.org/1999/xlink" viewBox="0 0 164 176"><defs><style>.a{fill:#fff;}.b{fill:#4b7c9c;}.c{clip-path:url(#a);}.d{clip-path:url(#b);}.e{clip-path:url(#c);}.f{clip-path:url(#d);}.g{clip-path:url(#e);}.h{clip-path:url(#f);}.i{fill:none;stroke:#fff;stroke-linecap:round;stroke-miterlimit:10;stroke-width:5px;}.j{clip-path:url(#g);}.k{clip-path:url(#h);}.l{clip-path:url(#i);}.m{clip-path:url(#j);}.n{clip-path:url(#k);}.o{clip-path:url(#l);}</style><clipPath id="a"><path class="a" d="M-518.78,24.23c-10.2,2.1-17.3,8.7-19,17.9-2,10.8.1,20.5,6.3,29a2.09,2.09,0,0,0,1.6.8,1.92,1.92,0,0,0,1.2-.4,2,2,0,0,0,.5-2.8c-5.5-7.7-7.3-16.1-5.6-25.9,1.4-7.5,7.3-12.9,15.8-14.7a2.05,2.05,0,0,0,1.6-2.4,2.12,2.12,0,0,0-2.4-1.5"/></clipPath><clipPath id="b"><path class="a" d="M-422.68,98.43a12.63,12.63,0,0,0-12.6,12.7,2,2,0,0,0,2,2,2,2,0,0,0,2-2,8.69,8.69,0,0,1,8.6-8.7,2,2,0,0,0,2-2,2,2,0,0,0-2-2"/></clipPath><clipPath id="c"><path class="a" d="M-536.28,107.33a8.81,8.81,0,0,0-8.8,8.8,2,2,0,0,0,2,2,2,2,0,0,0,2-2,4.8,4.8,0,0,1,4.8-4.8,2,2,0,0,0,2-2,2,2,0,0,0-2-2"/></clipPath><clipPath id="d"><path class="a" d="M-437.48,79.43A11.5,11.5,0,0,0-449,67.93a11.5,11.5,0,0,0-11.5,11.5A11.5,11.5,0,0,0-449,90.93a11.5,11.5,0,0,0,11.5-11.5M-449,85.81a6.42,6.42,0,0,1-6.38-6.38A6.43,6.43,0,0,1-449,73.05a6.43,6.43,0,0,1,6.38,6.38A6.37,6.37,0,0,1-449,85.81"/></clipPath><clipPath id="e"><path class="a" d="M-518.38,22.73a1.7,1.7,0,0,0-.7.1c-10.8,2.2-18.3,9.3-20.1,19-2,11.2.2,21.3,6.5,30.1a3.37,3.37,0,0,0,2.8,1.4,3.06,3.06,0,0,0,2-.7,3.28,3.28,0,0,0,1.4-2.2,4,4,0,0,0-.6-2.6c-5.3-7.3-7-15.4-5.3-24.8,1.2-6.9,6.7-11.9,14.7-13.5a3.41,3.41,0,0,0,2.2-1.5,3.44,3.44,0,0,0,.5-2.6,3.52,3.52,0,0,0-3.4-2.7"/></clipPath><clipPath id="f"><path class="a" d="M-553.38,130.33a9.71,9.71,0,0,0-9.7,9.7,9.71,9.71,0,0,0,9.7,9.7,9.77,9.77,0,0,0,9.7-9.7,9.65,9.65,0,0,0-9.7-9.7m0,14.93a5.12,5.12,0,0,1-5.13-5.13,5.24,5.24,0,0,1,5.13-5.12,5.24,5.24,0,0,1,5.13,5.12,5.12,5.12,0,0,1-5.13,5.13"/></clipPath><clipPath id="g"><path class="b" d="M-518.78-214.65c-10.2,2.1-17.3,8.7-19,17.9-2,10.8.1,20.5,6.3,29a2.09,2.09,0,0,0,1.6.8,1.92,1.92,0,0,0,1.2-.4,2,2,0,0,0,.5-2.8c-5.5-7.7-7.3-16.1-5.6-25.9,1.4-7.5,7.3-12.9,15.8-14.7a2.05,2.05,0,0,0,1.6-2.4,2.12,2.12,0,0,0-2.4-1.5"/></clipPath><clipPath id="h"><path class="b" d="M-422.68-140.45a12.63,12.63,0,0,0-12.6,12.7,2,2,0,0,0,2,2,2,2,0,0,0,2-2,8.69,8.69,0,0,1,8.6-8.7,2,2,0,0,0,2-2,2,2,0,0,0-2-2"/></clipPath><clipPath id="i"><path class="b" d="M-536.28-131.55a8.81,8.81,0,0,0-8.8,8.8,2,2,0,0,0,2,2,2,2,0,0,0,2-2,4.8,4.8,0,0,1,4.8-4.8,2,2,0,0,0,2-2,2,2,0,0,0-2-2"/></clipPath><clipPath id="j"><path class="b" d="M-437.48-159.45a11.5,11.5,0,0,0-11.5-11.5,11.5,11.5,0,0,0-11.5,11.5,11.5,11.5,0,0,0,11.5,11.5,11.5,11.5,0,0,0,11.5-11.5m-11.5,6.38a6.42,6.42,0,0,1-6.38-6.38,6.42,6.42,0,0,1,6.38-6.38,6.42,6.42,0,0,1,6.38,6.38,6.37,6.37,0,0,1-6.38,6.38"/></clipPath><clipPath id="k"><path class="b" d="M-518.38-216.15a1.7,1.7,0,0,0-.7.1c-10.8,2.2-18.3,9.3-20.1,19-2,11.2.2,21.3,6.5,30.1a3.37,3.37,0,0,0,2.8,1.4,3.06,3.06,0,0,0,2-.7,3.28,3.28,0,0,0,1.4-2.2,4,4,0,0,0-.6-2.6c-5.3-7.3-7-15.4-5.3-24.8,1.2-6.9,6.7-11.9,14.7-13.5a3.41,3.41,0,0,0,2.2-1.5,3.44,3.44,0,0,0,.5-2.6,3.52,3.52,0,0,0-3.4-2.7"/></clipPath><clipPath id="l"><path class="b" d="M-553.38-108.55a9.71,9.71,0,0,0-9.7,9.7,9.71,9.71,0,0,0,9.7,9.7,9.77,9.77,0,0,0,9.7-9.7,9.65,9.65,0,0,0-9.7-9.7m0,14.93a5.12,5.12,0,0,1-5.13-5.13,5.24,5.24,0,0,1,5.13-5.13,5.24,5.24,0,0,1,5.13,5.13,5.12,5.12,0,0,1-5.13,5.13"/></clipPath></defs><title>icons</title><path class="a" d="M-518.78,24.23c-10.2,2.1-17.3,8.7-19,17.9-2,10.8.1,20.5,6.3,29a2.09,2.09,0,0,0,1.6.8,1.92,1.92,0,0,0,1.2-.4,2,2,0,0,0,.5-2.8c-5.5-7.7-7.3-16.1-5.6-25.9,1.4-7.5,7.3-12.9,15.8-14.7a2.05,2.05,0,0,0,1.6-2.4,2.12,2.12,0,0,0-2.4-1.5"/><g class="c"><rect class="a" x="-779.08" y="-2124.87" width="2800" height="6362"/></g><path class="a" d="M-422.68,98.43a12.63,12.63,0,0,0-12.6,12.7,2,2,0,0,0,2,2,2,2,0,0,0,2-2,8.69,8.69,0,0,1,8.6-8.7,2,2,0,0,0,2-2,2,2,0,0,0-2-2"/><g class="d"><rect class="a" x="-779.08" y="-2124.87" width="2800" height="6362"/></g><path class="a" d="M-536.28,107.33a8.81,8.81,0,0,0-8.8,8.8,2,2,0,0,0,2,2,2,2,0,0,0,2-2,4.8,4.8,0,0,1,4.8-4.8,2,2,0,0,0,2-2,2,2,0,0,0-2-2"/><g class="e"><rect class="a" x="-779.08" y="-2124.87" width="2800" height="6362"/></g><path class="a" d="M-437.48,79.43A11.5,11.5,0,0,0-449,67.93a11.5,11.5,0,0,0-11.5,11.5A11.5,11.5,0,0,0-449,90.93a11.5,11.5,0,0,0,11.5-11.5M-449,85.81a6.42,6.42,0,0,1-6.38-6.38A6.43,6.43,0,0,1-449,73.05a6.43,6.43,0,0,1,6.38,6.38A6.37,6.37,0,0,1-449,85.81"/><g class="f"><rect class="a" x="-779.08" y="-2124.87" width="2800" height="6362"/></g><path class="a" d="M-518.38,22.73a1.7,1.7,0,0,0-.7.1c-10.8,2.2-18.3,9.3-20.1,19-2,11.2.2,21.3,6.5,30.1a3.37,3.37,0,0,0,2.8,1.4,3.06,3.06,0,0,0,2-.7,3.28,3.28,0,0,0,1.4-2.2,4,4,0,0,0-.6-2.6c-5.3-7.3-7-15.4-5.3-24.8,1.2-6.9,6.7-11.9,14.7-13.5a3.41,3.41,0,0,0,2.2-1.5,3.44,3.44,0,0,0,.5-2.6,3.52,3.52,0,0,0-3.4-2.7"/><g class="g"><rect class="a" x="-779.08" y="-2124.87" width="2800" height="6362"/></g><path class="a" d="M-553.38,130.33a9.71,9.71,0,0,0-9.7,9.7,9.71,9.71,0,0,0,9.7,9.7,9.77,9.77,0,0,0,9.7-9.7,9.65,9.65,0,0,0-9.7-9.7m0,14.93a5.12,5.12,0,0,1-5.13-5.13,5.24,5.24,0,0,1,5.13-5.12,5.24,5.24,0,0,1,5.13,5.12,5.12,5.12,0,0,1-5.13,5.13"/><g class="h"><rect class="a" x="-779.08" y="-2124.87" width="2800" height="6362"/></g><line class="i" x1="28.52" y1="39.01" x2="27.52" y2="44.44"/><path class="b" d="M-518.78-214.65c-10.2,2.1-17.3,8.7-19,17.9-2,10.8.1,20.5,6.3,29a2.09,2.09,0,0,0,1.6.8,1.92,1.92,0,0,0,1.2-.4,2,2,0,0,0,.5-2.8c-5.5-7.7-7.3-16.1-5.6-25.9,1.4-7.5,7.3-12.9,15.8-14.7a2.05,2.05,0,0,0,1.6-2.4,2.12,2.12,0,0,0-2.4-1.5"/><g class="j"><rect class="b" x="-779.08" y="-2363.75" width="2800" height="6362"/></g><path class="b" d="M-422.68-140.45a12.63,12.63,0,0,0-12.6,12.7,2,2,0,0,0,2,2,2,2,0,0,0,2-2,8.69,8.69,0,0,1,8.6-8.7,2,2,0,0,0,2-2,2,2,0,0,0-2-2"/><g class="k"><rect class="b" x="-779.08" y="-2363.75" width="2800" height="6362"/></g><path class="b" d="M-536.28-131.55a8.81,8.81,0,0,0-8.8,8.8,2,2,0,0,0,2,2,2,2,0,0,0,2-2,4.8,4.8,0,0,1,4.8-4.8,2,2,0,0,0,2-2,2,2,0,0,0-2-2"/><g class="l"><rect class="b" x="-779.08" y="-2363.75" width="2800" height="6362"/></g><path class="b" d="M-437.48-159.45a11.5,11.5,0,0,0-11.5-11.5,11.5,11.5,0,0,0-11.5,11.5,11.5,11.5,0,0,0,11.5,11.5,11.5,11.5,0,0,0,11.5-11.5m-11.5,6.38a6.42,6.42,0,0,1-6.38-6.38,6.42,6.42,0,0,1,6.38-6.38,6.42,6.42,0,0,1,6.38,6.38,6.37,6.37,0,0,1-6.38,6.38"/><g class="m"><rect class="b" x="-779.08" y="-2363.75" width="2800" height="6362"/></g><path class="b" d="M-518.38-216.15a1.7,1.7,0,0,0-.7.1c-10.8,2.2-18.3,9.3-20.1,19-2,11.2.2,21.3,6.5,30.1a3.37,3.37,0,0,0,2.8,1.4,3.06,3.06,0,0,0,2-.7,3.28,3.28,0,0,0,1.4-2.2,4,4,0,0,0-.6-2.6c-5.3-7.3-7-15.4-5.3-24.8,1.2-6.9,6.7-11.9,14.7-13.5a3.41,3.41,0,0,0,2.2-1.5,3.44,3.44,0,0,0,.5-2.6,3.52,3.52,0,0,0-3.4-2.7"/><g class="n"><rect class="b" x="-779.08" y="-2363.75" width="2800" height="6362"/></g><path class="b" d="M-553.38-108.55a9.71,9.71,0,0,0-9.7,9.7,9.71,9.71,0,0,0,9.7,9.7,9.77,9.77,0,0,0,9.7-9.7,9.65,9.65,0,0,0-9.7-9.7m0,14.93a5.12,5.12,0,0,1-5.13-5.13,5.24,5.24,0,0,1,5.13-5.13,5.24,5.24,0,0,1,5.13,5.13,5.12,5.12,0,0,1-5.13,5.13"/><g class="o"><rect class="b" x="-779.08" y="-2363.75" width="2800" height="6362"/></g><path class="a" d="M134.25,17.45c-5.79-6.34-14-9.55-24.38-9.55A34.34,34.34,0,0,0,90.8,13.64a11.23,11.23,0,0,1-12.47,0A34.37,34.37,0,0,0,59.25,7.9c-10.33,0-18.52,3.19-24.33,9.49-3.49,3.78-4.88,6.67-6.74,12.45-1.18,3.67,3.15,6.44,5.37,2.71,1.42-5.45,2.64-7.9,5.68-11.18,4.66-5.05,11.4-7.61,20-7.61A28.63,28.63,0,0,1,75.1,18.52,16.36,16.36,0,0,0,77.91,20v.06c-7.28,2.27-14.7,2.2-23.66-1.56a3,3,0,0,0-3.73,1,2.93,2.93,0,0,0,1.29,4.35,42.18,42.18,0,0,0,16.63,3.63c10.09,0,18.25-4.2,25.4-8.49a2.93,2.93,0,0,0,.9-.85h0a28.53,28.53,0,0,1,15.14-4.33c8.67,0,15.41,2.56,20,7.63,6.64,7.28,9.33,20.19,7.76,37.31A10.7,10.7,0,0,1,127,68.48h-.82l0,0H42.67l0,0H41.8a10.75,10.75,0,0,1-10.74-9.85c-.16-2-.17-3.93-.3-5.8-.31-4.44-5.54-4.25-5.89-1.59-.33,2.48.12,5.09.34,7.8A16.63,16.63,0,0,0,41.8,74.34H44l0,0,1.49,6.53,0,0H42.75a9,9,0,0,0-9,7.49,8.81,8.81,0,0,0,8.7,10.1h7.08l0,0,1.33,5.82,0,0h-.29a9,9,0,0,0-9,7.49,8.81,8.81,0,0,0,8.7,10.1h4.62l0,0,1.37,6,0,0a8.81,8.81,0,0,0-6.81,10.3,9,9,0,0,0,8.93,7.09h1.86l0,0,1.53,6.68a20.42,20.42,0,0,0,20,16H87a20.42,20.42,0,0,0,20-16l1.53-6.69,0,0h0a9,9,0,0,0,8.93-7.18,8.8,8.8,0,0,0-5.11-9.65h0s1.5-6.59,1.51-6.62h2.47a9,9,0,0,0,9-7.81,8.77,8.77,0,0,0-7.5-9.65l0,0,1.35-5.9c0-.06,0-.06,0-.06h4.9a9,9,0,0,0,9-7.49,8.8,8.8,0,0,0-8.7-10.1h-1.21l1.5-6.57,0,0H127a16.54,16.54,0,0,0,16.55-15.1C145.27,40.17,142.15,26.11,134.25,17.45ZM50.08,74.35h68.68l0,0-1.49,6.53,0,0H51.57l0,0-1.49-6.53Zm51.26,76.47A14.7,14.7,0,0,1,87,162.24h-5.2A14.7,14.7,0,0,1,67.5,150.82l-1.22-5.35,0,0h36.22l0,0ZM113.8,137a3.49,3.49,0,0,1-3.5,3.5H56.78a3.5,3.5,0,0,1,0-7H110.3A3.5,3.5,0,0,1,113.8,137ZM60.92,122l0,0h46.93l0,0-1.32,5.8,0,0H62.28l0,0Zm60.33-8.63a3.5,3.5,0,0,1-3.5,3.5H49.16a3.5,3.5,0,0,1,0-7h68.59A3.5,3.5,0,0,1,121.25,113.39ZM55.57,98.57l0,0h57.64l0,0-1.32,5.8,0,0h-55l0,0Zm68.14-12.78a3.5,3.5,0,0,1,0,7H41.54a3.5,3.5,0,0,1,0-7Z"/></svg>