<svg xmlns="http://www.w3.org/2000/svg" xmlns:xlink="http://www.w3.org/1999/xlink" viewBox="0 0 164 176"><defs><style>.a{fill:#fff;}.b{fill:#4b7c9c;}.c{clip-path:url(#a);}.d{clip-path:url(#b);}.e{clip-path:url(#c);}.f{clip-path:url(#d);}.g{clip-path:url(#e);}.h{clip-path:url(#f);}.i{isolation:isolate;}.j{fill:none;stroke:#fff;stroke-linecap:round;stroke-miterlimit:10;stroke-width:5px;}.k{clip-path:url(#g);}.l{clip-path:url(#h);}.m{clip-path:url(#i);}.n{clip-path:url(#j);}.o{clip-path:url(#k);}.p{clip-path:url(#l);}</style><clipPath id="a"><path class="a" d="M-153.2,24.23c-10.2,2.1-17.3,8.7-19,17.9-2,10.8.1,20.5,6.3,29a2.09,2.09,0,0,0,1.6.8,1.92,1.92,0,0,0,1.2-.4,2,2,0,0,0,.5-2.8c-5.5-7.7-7.3-16.1-5.6-25.9,1.4-7.5,7.3-12.9,15.8-14.7a2.05,2.05,0,0,0,1.6-2.4,2.12,2.12,0,0,0-2.4-1.5"/></clipPath><clipPath id="b"><path class="a" d="M-57.1,98.43a12.63,12.63,0,0,0-12.6,12.7,2,2,0,0,0,2,2,2,2,0,0,0,2-2,8.69,8.69,0,0,1,8.6-8.7,2,2,0,0,0,2-2,2,2,0,0,0-2-2"/></clipPath><clipPath id="c"><path class="a" d="M-170.7,107.33a8.81,8.81,0,0,0-8.8,8.8,2,2,0,0,0,2,2,2,2,0,0,0,2-2,4.8,4.8,0,0,1,4.8-4.8,2,2,0,0,0,2-2,2,2,0,0,0-2-2"/></clipPath><clipPath id="d"><path class="a" d="M-71.9,79.43a11.5,11.5,0,0,0-11.5-11.5,11.5,11.5,0,0,0-11.5,11.5,11.5,11.5,0,0,0,11.5,11.5,11.5,11.5,0,0,0,11.5-11.5m-11.5,6.38a6.42,6.42,0,0,1-6.38-6.38,6.43,6.43,0,0,1,6.38-6.38A6.43,6.43,0,0,1-77,79.43a6.37,6.37,0,0,1-6.38,6.38"/></clipPath><clipPath id="e"><path class="a" d="M-152.8,22.73a1.7,1.7,0,0,0-.7.1c-10.8,2.2-18.3,9.3-20.1,19-2,11.2.2,21.3,6.5,30.1a3.37,3.37,0,0,0,2.8,1.4,3.06,3.06,0,0,0,2-.7,3.28,3.28,0,0,0,1.4-2.2,4,4,0,0,0-.6-2.6c-5.3-7.3-7-15.4-5.3-24.8,1.2-6.9,6.7-11.9,14.7-13.5a3.41,3.41,0,0,0,2.2-1.5,3.44,3.44,0,0,0,.5-2.6,3.52,3.52,0,0,0-3.4-2.7"/></clipPath><clipPath id="f"><path class="a" d="M-187.8,130.33a9.71,9.71,0,0,0-9.7,9.7,9.71,9.71,0,0,0,9.7,9.7,9.77,9.77,0,0,0,9.7-9.7,9.65,9.65,0,0,0-9.7-9.7m0,14.93a5.12,5.12,0,0,1-5.13-5.13A5.24,5.24,0,0,1-187.8,135a5.24,5.24,0,0,1,5.13,5.12,5.12,5.12,0,0,1-5.13,5.13"/></clipPath><clipPath id="g"><path class="b" d="M-153.2-214.65c-10.2,2.1-17.3,8.7-19,17.9-2,10.8.1,20.5,6.3,29a2.09,2.09,0,0,0,1.6.8,1.92,1.92,0,0,0,1.2-.4,2,2,0,0,0,.5-2.8c-5.5-7.7-7.3-16.1-5.6-25.9,1.4-7.5,7.3-12.9,15.8-14.7a2.05,2.05,0,0,0,1.6-2.4,2.12,2.12,0,0,0-2.4-1.5"/></clipPath><clipPath id="h"><path class="b" d="M-57.1-140.45a12.63,12.63,0,0,0-12.6,12.7,2,2,0,0,0,2,2,2,2,0,0,0,2-2,8.69,8.69,0,0,1,8.6-8.7,2,2,0,0,0,2-2,2,2,0,0,0-2-2"/></clipPath><clipPath id="i"><path class="b" d="M-170.7-131.55a8.81,8.81,0,0,0-8.8,8.8,2,2,0,0,0,2,2,2,2,0,0,0,2-2,4.8,4.8,0,0,1,4.8-4.8,2,2,0,0,0,2-2,2,2,0,0,0-2-2"/></clipPath><clipPath id="j"><path class="b" d="M-71.9-159.45a11.5,11.5,0,0,0-11.5-11.5,11.5,11.5,0,0,0-11.5,11.5,11.5,11.5,0,0,0,11.5,11.5,11.5,11.5,0,0,0,11.5-11.5m-11.5,6.38a6.42,6.42,0,0,1-6.38-6.38,6.42,6.42,0,0,1,6.38-6.38A6.42,6.42,0,0,1-77-159.45a6.37,6.37,0,0,1-6.38,6.38"/></clipPath><clipPath id="k"><path class="b" d="M-152.8-216.15a1.7,1.7,0,0,0-.7.1c-10.8,2.2-18.3,9.3-20.1,19-2,11.2.2,21.3,6.5,30.1a3.37,3.37,0,0,0,2.8,1.4,3.06,3.06,0,0,0,2-.7,3.28,3.28,0,0,0,1.4-2.2,4,4,0,0,0-.6-2.6c-5.3-7.3-7-15.4-5.3-24.8,1.2-6.9,6.7-11.9,14.7-13.5a3.41,3.41,0,0,0,2.2-1.5,3.44,3.44,0,0,0,.5-2.6,3.52,3.52,0,0,0-3.4-2.7"/></clipPath><clipPath id="l"><path class="b" d="M-187.8-108.55a9.71,9.71,0,0,0-9.7,9.7,9.71,9.71,0,0,0,9.7,9.7,9.77,9.77,0,0,0,9.7-9.7,9.65,9.65,0,0,0-9.7-9.7m0,14.93a5.12,5.12,0,0,1-5.13-5.13,5.24,5.24,0,0,1,5.13-5.13,5.24,5.24,0,0,1,5.13,5.13,5.12,5.12,0,0,1-5.13,5.13"/></clipPath></defs><title>icons</title><path class="a" d="M-153.2,24.23c-10.2,2.1-17.3,8.7-19,17.9-2,10.8.1,20.5,6.3,29a2.09,2.09,0,0,0,1.6.8,1.92,1.92,0,0,0,1.2-.4,2,2,0,0,0,.5-2.8c-5.5-7.7-7.3-16.1-5.6-25.9,1.4-7.5,7.3-12.9,15.8-14.7a2.05,2.05,0,0,0,1.6-2.4,2.12,2.12,0,0,0-2.4-1.5"/><g class="c"><rect class="a" x="-413.5" y="-2124.87" width="2800" height="6362"/></g><path class="a" d="M-57.1,98.43a12.63,12.63,0,0,0-12.6,12.7,2,2,0,0,0,2,2,2,2,0,0,0,2-2,8.69,8.69,0,0,1,8.6-8.7,2,2,0,0,0,2-2,2,2,0,0,0-2-2"/><g class="d"><rect class="a" x="-413.5" y="-2124.87" width="2800" height="6362"/></g><path class="a" d="M-170.7,107.33a8.81,8.81,0,0,0-8.8,8.8,2,2,0,0,0,2,2,2,2,0,0,0,2-2,4.8,4.8,0,0,1,4.8-4.8,2,2,0,0,0,2-2,2,2,0,0,0-2-2"/><g class="e"><rect class="a" x="-413.5" y="-2124.87" width="2800" height="6362"/></g><path class="a" d="M-71.9,79.43a11.5,11.5,0,0,0-11.5-11.5,11.5,11.5,0,0,0-11.5,11.5,11.5,11.5,0,0,0,11.5,11.5,11.5,11.5,0,0,0,11.5-11.5m-11.5,6.38a6.42,6.42,0,0,1-6.38-6.38,6.43,6.43,0,0,1,6.38-6.38A6.43,6.43,0,0,1-77,79.43a6.37,6.37,0,0,1-6.38,6.38"/><g class="f"><rect class="a" x="-413.5" y="-2124.87" width="2800" height="6362"/></g><path class="a" d="M-152.8,22.73a1.7,1.7,0,0,0-.7.1c-10.8,2.2-18.3,9.3-20.1,19-2,11.2.2,21.3,6.5,30.1a3.37,3.37,0,0,0,2.8,1.4,3.06,3.06,0,0,0,2-.7,3.28,3.28,0,0,0,1.4-2.2,4,4,0,0,0-.6-2.6c-5.3-7.3-7-15.4-5.3-24.8,1.2-6.9,6.7-11.9,14.7-13.5a3.41,3.41,0,0,0,2.2-1.5,3.44,3.44,0,0,0,.5-2.6,3.52,3.52,0,0,0-3.4-2.7"/><g class="g"><rect class="a" x="-413.5" y="-2124.87" width="2800" height="6362"/></g><path class="a" d="M-187.8,130.33a9.71,9.71,0,0,0-9.7,9.7,9.71,9.71,0,0,0,9.7,9.7,9.77,9.77,0,0,0,9.7-9.7,9.65,9.65,0,0,0-9.7-9.7m0,14.93a5.12,5.12,0,0,1-5.13-5.13A5.24,5.24,0,0,1-187.8,135a5.24,5.24,0,0,1,5.13,5.12,5.12,5.12,0,0,1-5.13,5.13"/><g class="h"><rect class="a" x="-413.5" y="-2124.87" width="2800" height="6362"/></g><path class="a" d="M43.66,20.5a1.7,1.7,0,0,0-.7.1c-10.8,2.2-18.3,9.3-20.1,19-2,11.2.2,21.3,6.5,30.1a3.37,3.37,0,0,0,2.8,1.4,3.06,3.06,0,0,0,2-.7,3.28,3.28,0,0,0,1.4-2.2,4,4,0,0,0-.6-2.6c-5.3-7.3-7-15.4-5.3-24.8,1.2-6.9,6.7-11.9,14.7-13.5a3.48,3.48,0,0,0,2.7-4.1,3.52,3.52,0,0,0-3.4-2.7"/><g class="i"><path class="a" d="M144.51,27.14l-.06,0a3.5,3.5,0,0,0-1.58,4.33A34.47,34.47,0,0,1,145,43.6c.3,11.6-2.8,21.3-9.2,29.8a41.73,41.73,0,0,0-2.9,4.4l-.7,1.2a18.54,18.54,0,0,0-2.8,9.7,127.76,127.76,0,0,1-.38,21.86c-.8,7.46-.56,10.61-2,17.14a72.64,72.64,0,0,1-6.6,22c-2,4-5,9-10.5,12.4a5.09,5.09,0,0,1-2,.4,3.6,3.6,0,0,1-2.2-.7c-7.7-5.1-11-32.1-11.3-47.9a14.15,14.15,0,1,0-28.3-.1c-.3,15.8-3.5,42.9-11.3,47.9a3.6,3.6,0,0,1-2.2.7,7.87,7.87,0,0,1-2-.4c-6.4-3.3-14.2-21.6-16.1-30.3a350.2,350.2,0,0,1-3.2-41.5v-.7a11.44,11.44,0,0,0-.7-5.3l-.3-.6a53.83,53.83,0,0,0-5.7-10.5c-8-11.1-10.6-23.3-8-37.5,1.9-10.7,10.4-18.6,22.7-21a42.34,42.34,0,0,1,7.9-.8,44.41,44.41,0,0,1,18.3,4.1,37.44,37.44,0,0,0,15.1,3.3,40.48,40.48,0,0,0,15.9-3.5,47.41,47.41,0,0,1,14.7-3.7c1.1-.1,2.3-.2,3.4-.2,5.57,0,9,.43,13.62,2.84a3.37,3.37,0,0,0,4.11-.81l.05-.05a3.42,3.42,0,0,0-1-5.28c-5.59-2.9-10.06-3.6-16.73-3.6-1.3,0-2.7.1-4,.2A54,54,0,0,0,94,11.4a31.85,31.85,0,0,1-13.2,2.9,30.84,30.84,0,0,1-12.4-2.7,52.83,52.83,0,0,0-21.2-4.7,46,46,0,0,0-9.1.9c-15.2,3-25.7,13-28.2,26.6-2.9,15.9.2,30.3,9.2,42.8a59.12,59.12,0,0,1,5,9.3l.3.6a6.85,6.85,0,0,1,.1,2.1V90a301.06,301.06,0,0,0,3.3,43.1c2.1,9.8,10.7,30.4,19.7,35l.2.1a12.16,12.16,0,0,0,4.8,1,10.82,10.82,0,0,0,6-1.8c13-8.5,14.3-46.2,14.4-53.7a7.46,7.46,0,0,1,7.1-7.4,7.38,7.38,0,0,1,7.4,7.4,195.64,195.64,0,0,0,1.9,22.8c2.4,16.6,6.6,26.9,12.5,30.8a10.82,10.82,0,0,0,6,1.8,11.82,11.82,0,0,0,4.8-1c.1-.1.3-.1.5-.2,7.2-4.3,10.9-10.5,13.3-15.4a77.09,77.09,0,0,0,7-22.2c2-8,2-10.53,3.44-19.74a189.53,189.53,0,0,0-1-22.45,22.79,22.79,0,0,1,2.5-5.51l.8-1.3c.8-1.3,1.6-2.6,2.4-3.8,7.4-9.8,10.9-20.9,10.6-34.1a42.3,42.3,0,0,0-2.62-14.5A3.49,3.49,0,0,0,144.51,27.14Z"/></g><path class="j" d="M98.56,47.77H90.31V39.52a4,4,0,0,0-4-4H75.36a4,4,0,0,0-4,4v8.25H63.09a4,4,0,0,0-4,4V62.72a4,4,0,0,0,4,4h8.25V75a4,4,0,0,0,4,4H86.29a4,4,0,0,0,4-4V66.75h8.25a4,4,0,0,0,4-4V51.8A4,4,0,0,0,98.56,47.77Z"/><path class="j" d="M136.49,18.55A11.13,11.13,0,0,1,141.92,23"/><path class="b" d="M-153.2-214.65c-10.2,2.1-17.3,8.7-19,17.9-2,10.8.1,20.5,6.3,29a2.09,2.09,0,0,0,1.6.8,1.92,1.92,0,0,0,1.2-.4,2,2,0,0,0,.5-2.8c-5.5-7.7-7.3-16.1-5.6-25.9,1.4-7.5,7.3-12.9,15.8-14.7a2.05,2.05,0,0,0,1.6-2.4,2.12,2.12,0,0,0-2.4-1.5"/><g class="k"><rect class="b" x="-413.5" y="-2363.75" width="2800" height="6362"/></g><path class="b" d="M-57.1-140.45a12.63,12.63,0,0,0-12.6,12.7,2,2,0,0,0,2,2,2,2,0,0,0,2-2,8.69,8.69,0,0,1,8.6-8.7,2,2,0,0,0,2-2,2,2,0,0,0-2-2"/><g class="l"><rect class="b" x="-413.5" y="-2363.75" width="2800" height="6362"/></g><path class="b" d="M-170.7-131.55a8.81,8.81,0,0,0-8.8,8.8,2,2,0,0,0,2,2,2,2,0,0,0,2-2,4.8,4.8,0,0,1,4.8-4.8,2,2,0,0,0,2-2,2,2,0,0,0-2-2"/><g class="m"><rect class="b" x="-413.5" y="-2363.75" width="2800" height="6362"/></g><path class="b" d="M-71.9-159.45a11.5,11.5,0,0,0-11.5-11.5,11.5,11.5,0,0,0-11.5,11.5,11.5,11.5,0,0,0,11.5,11.5,11.5,11.5,0,0,0,11.5-11.5m-11.5,6.38a6.42,6.42,0,0,1-6.38-6.38,6.42,6.42,0,0,1,6.38-6.38A6.42,6.42,0,0,1-77-159.45a6.37,6.37,0,0,1-6.38,6.38"/><g class="n"><rect class="b" x="-413.5" y="-2363.75" width="2800" height="6362"/></g><path class="b" d="M-152.8-216.15a1.7,1.7,0,0,0-.7.1c-10.8,2.2-18.3,9.3-20.1,19-2,11.2.2,21.3,6.5,30.1a3.37,3.37,0,0,0,2.8,1.4,3.06,3.06,0,0,0,2-.7,3.28,3.28,0,0,0,1.4-2.2,4,4,0,0,0-.6-2.6c-5.3-7.3-7-15.4-5.3-24.8,1.2-6.9,6.7-11.9,14.7-13.5a3.41,3.41,0,0,0,2.2-1.5,3.44,3.44,0,0,0,.5-2.6,3.52,3.52,0,0,0-3.4-2.7"/><g class="o"><rect class="b" x="-413.5" y="-2363.75" width="2800" height="6362"/></g><path class="b" d="M-187.8-108.55a9.71,9.71,0,0,0-9.7,9.7,9.71,9.71,0,0,0,9.7,9.7,9.77,9.77,0,0,0,9.7-9.7,9.65,9.65,0,0,0-9.7-9.7m0,14.93a5.12,5.12,0,0,1-5.13-5.13,5.24,5.24,0,0,1,5.13-5.13,5.24,5.24,0,0,1,5.13,5.13,5.12,5.12,0,0,1-5.13,5.13"/><g class="p"><rect class="b" x="-413.5" y="-2363.75" width="2800" height="6362"/></g></svg>