<?xml version="1.0" encoding="utf-8"?>
<!-- Generator: Adobe Illustrator 23.0.1, SVG Export Plug-In . SVG Version: 6.00 Build 0)  -->
<svg version="1.1" id="Layer_1" xmlns="http://www.w3.org/2000/svg" xmlns:xlink="http://www.w3.org/1999/xlink" x="0px" y="0px"
	 viewBox="0 0 122 174" style="enable-background:new 0 0 122 174;" xml:space="preserve">
<style type="text/css">
	.st0{clip-path:url(#SVGID_2_);}
	.st1{clip-path:url(#SVGID_4_);enable-background:new    ;}
	.st2{clip-path:url(#SVGID_6_);}
	.st3{clip-path:url(#SVGID_8_);}
	.st4{clip-path:url(#SVGID_10_);fill:#FFFFFF;}
</style>
<g>
	<defs>
		<rect id="SVGID_1_" x="-0.1" y="3.6" width="121.9" height="163.9"/>
	</defs>
	<clipPath id="SVGID_2_">
		<use xlink:href="#SVGID_1_"  style="overflow:visible;"/>
	</clipPath>
	<g class="st0">
		<defs>
			<rect id="SVGID_3_" x="-238.1" y="-2472.4" width="2800" height="6362"/>
		</defs>
		<clipPath id="SVGID_4_">
			<use xlink:href="#SVGID_3_"  style="overflow:visible;"/>
		</clipPath>
		<g class="st1">
			<g>
				<defs>
					<rect id="SVGID_5_" x="-2.1" y="3.6" width="126" height="164"/>
				</defs>
				<clipPath id="SVGID_6_">
					<use xlink:href="#SVGID_5_"  style="overflow:visible;"/>
				</clipPath>
				<g class="st2">
					<defs>
						<path id="SVGID_7_" d="M111.8,13.4c-5.9-6.5-14.3-9.8-24.9-9.8c-7,0-13.7,2-19.5,5.9c-3.9,2.6-8.9,2.6-12.8,0
							c-5.8-3.8-12.5-5.9-19.5-5.9c-10.6,0-19,3.3-24.9,9.7C2.1,22.1-1.3,36.5,0.3,55.9c0.7,8.9,8,15.7,17,15.7h2.3l1.5,6.8h-3.2
							c-5,0-9,4-9,9c0,5,4,9,9,9h7.3l1.4,6h-0.6c-5,0-9,4-9,9c0,5,4,9,9,9h4.8l1.4,6.2c-4.1,0.8-7.2,4.5-7.2,8.8c0,5,4,9,9,9h2.2
							l1.6,6.9c2.2,9.6,10.6,16.3,20.5,16.3h5.4c9.9,0,18.3-6.7,20.5-16.3l1.6-6.9h0.3c5,0,9-4,9-9c0-3.7-2.2-6.8-5.4-8.2l1.5-6.8
							h2.8c5,0,9-4,9-9c0-4.5-3.4-8.3-7.8-8.9l1.4-6.1h5.4c5,0,9-4,9-9c0-5-4-9-9-9h-1.2l1.5-6.8h2.2c8.8,0,16.1-6.6,16.9-15.5
							C123.1,36.6,119.9,22.2,111.8,13.4z M78.2,149.9c-1.6,6.9-7.6,11.7-14.6,11.7h-5.4c-7,0-13.1-4.8-14.6-11.7l-1.3-5.5h37.1
							L78.2,149.9z M85.9,138.4h-52c-1.7,0-3-1.3-3-3c0-1.7,1.3-3,3-3h52c1.6,0,3,1.3,3,3C88.9,137,87.6,138.4,85.9,138.4z
							 M83.5,126.4H38.2l-1.4-6h48.1L83.5,126.4z M96.9,111.4c0,1.7-1.4,3-3,3h-68c-1.7,0-3-1.3-3-3c0-1.7,1.3-3,3-3h68
							C95.6,108.4,96.9,109.7,96.9,111.4z M89,102.4H32.7l-1.4-6h59.1L89,102.4z M104.9,87.4c0,1.7-1.4,3-3,3h-84c-1.7,0-3-1.3-3-3
							c0-1.7,1.3-3,3-3h84C103.6,84.4,104.9,85.7,104.9,87.4z M94.5,78.4H27.2l-1.5-6.8H96L94.5,78.4z M115.4,55.6
							c-0.5,5.7-5.2,10-11,10h-0.8l0-0.1H18.1l0,0.1h-0.9c-5.8,0-10.5-4.4-11-10.1C4.9,38,7.8,24.8,14.6,17.4
							c4.8-5.2,11.7-7.8,20.5-7.8c5.8,0,11.4,1.7,16.2,4.9c0.9,0.6,1.9,1.1,3,1.5c-7.5,2.4-15.2,2.3-24.5-1.6
							c-1.5-0.6-3.3,0.1-3.9,1.6c-0.6,1.5,0.1,3.3,1.6,3.9c6.2,2.6,11.9,3.7,17,3.7c10.3,0,18.7-4.3,26-8.7c0.4-0.2,0.7-0.5,0.9-0.9
							c4.6-2.9,10-4.4,15.5-4.4c8.9,0,15.8,2.6,20.5,7.8C114.2,24.9,117,38.1,115.4,55.6z"/>
					</defs>
					<clipPath id="SVGID_8_">
						<use xlink:href="#SVGID_7_"  style="overflow:visible;"/>
					</clipPath>
					<g class="st3">
						<defs>
							<rect id="SVGID_9_" x="-0.1" y="3.6" width="122" height="164"/>
						</defs>
						<clipPath id="SVGID_10_">
							<use xlink:href="#SVGID_9_"  style="overflow:visible;"/>
						</clipPath>
						<rect x="-10.1" y="-6.4" class="st4" width="141.9" height="183.9"/>
					</g>
				</g>
			</g>
		</g>
	</g>
</g>
</svg>
