<svg xmlns="http://www.w3.org/2000/svg" xmlns:xlink="http://www.w3.org/1999/xlink" viewBox="0 0 164 176"><defs><style>.a{fill:#fff;}.b{fill:#4b7c9c;}.c,.s{fill:none;}.d{clip-path:url(#a);}.e{clip-path:url(#b);}.f{clip-path:url(#c);}.g{clip-path:url(#d);}.h{clip-path:url(#e);}.i{clip-path:url(#f);}.j{clip-path:url(#g);}.k{clip-path:url(#h);}.l{clip-path:url(#i);}.m{clip-path:url(#j);}.n{clip-path:url(#k);}.o{clip-path:url(#l);}.p{isolation:isolate;}.q{clip-path:url(#m);}.r{clip-path:url(#n);}.s{stroke:#fff;stroke-linecap:round;stroke-miterlimit:10;stroke-width:5px;}</style><clipPath id="a"><path class="a" d="M-708,24.23c-10.2,2.1-17.3,8.7-19,17.9-2,10.8.1,20.5,6.3,29a2.09,2.09,0,0,0,1.6.8,1.92,1.92,0,0,0,1.2-.4,2,2,0,0,0,.5-2.8c-5.5-7.7-7.3-16.1-5.6-25.9,1.4-7.5,7.3-12.9,15.8-14.7a2.05,2.05,0,0,0,1.6-2.4,2.12,2.12,0,0,0-2.4-1.5"/></clipPath><clipPath id="b"><path class="a" d="M-611.89,98.43a12.63,12.63,0,0,0-12.6,12.7,2,2,0,0,0,2,2,2,2,0,0,0,2-2,8.69,8.69,0,0,1,8.6-8.7,2,2,0,0,0,2-2,2,2,0,0,0-2-2"/></clipPath><clipPath id="c"><path class="a" d="M-725.49,107.33a8.81,8.81,0,0,0-8.8,8.8,2,2,0,0,0,2,2,2,2,0,0,0,2-2,4.8,4.8,0,0,1,4.8-4.8,2,2,0,0,0,2-2,2,2,0,0,0-2-2"/></clipPath><clipPath id="d"><path class="a" d="M-626.69,79.43a11.5,11.5,0,0,0-11.5-11.5,11.5,11.5,0,0,0-11.5,11.5,11.5,11.5,0,0,0,11.5,11.5,11.5,11.5,0,0,0,11.5-11.5m-11.5,6.38a6.42,6.42,0,0,1-6.38-6.38,6.43,6.43,0,0,1,6.38-6.38,6.43,6.43,0,0,1,6.38,6.38,6.37,6.37,0,0,1-6.38,6.38"/></clipPath><clipPath id="e"><path class="a" d="M-707.59,22.73a1.7,1.7,0,0,0-.7.1c-10.8,2.2-18.3,9.3-20.1,19-2,11.2.2,21.3,6.5,30.1a3.37,3.37,0,0,0,2.8,1.4,3.06,3.06,0,0,0,2-.7,3.28,3.28,0,0,0,1.4-2.2,4,4,0,0,0-.6-2.6c-5.3-7.3-7-15.4-5.3-24.8,1.2-6.9,6.7-11.9,14.7-13.5a3.41,3.41,0,0,0,2.2-1.5,3.44,3.44,0,0,0,.5-2.6,3.52,3.52,0,0,0-3.4-2.7"/></clipPath><clipPath id="f"><path class="a" d="M-742.59,130.33a9.71,9.71,0,0,0-9.7,9.7,9.71,9.71,0,0,0,9.7,9.7,9.77,9.77,0,0,0,9.7-9.7,9.65,9.65,0,0,0-9.7-9.7m0,14.93a5.12,5.12,0,0,1-5.13-5.13,5.24,5.24,0,0,1,5.13-5.12,5.24,5.24,0,0,1,5.13,5.12,5.12,5.12,0,0,1-5.13,5.13"/></clipPath><clipPath id="g"><path class="b" d="M-708-214.65c-10.2,2.1-17.3,8.7-19,17.9-2,10.8.1,20.5,6.3,29a2.09,2.09,0,0,0,1.6.8,1.92,1.92,0,0,0,1.2-.4,2,2,0,0,0,.5-2.8c-5.5-7.7-7.3-16.1-5.6-25.9,1.4-7.5,7.3-12.9,15.8-14.7a2.05,2.05,0,0,0,1.6-2.4,2.12,2.12,0,0,0-2.4-1.5"/></clipPath><clipPath id="h"><path class="b" d="M-611.89-140.45a12.63,12.63,0,0,0-12.6,12.7,2,2,0,0,0,2,2,2,2,0,0,0,2-2,8.69,8.69,0,0,1,8.6-8.7,2,2,0,0,0,2-2,2,2,0,0,0-2-2"/></clipPath><clipPath id="i"><path class="b" d="M-725.49-131.55a8.81,8.81,0,0,0-8.8,8.8,2,2,0,0,0,2,2,2,2,0,0,0,2-2,4.8,4.8,0,0,1,4.8-4.8,2,2,0,0,0,2-2,2,2,0,0,0-2-2"/></clipPath><clipPath id="j"><path class="b" d="M-626.69-159.45a11.5,11.5,0,0,0-11.5-11.5,11.5,11.5,0,0,0-11.5,11.5,11.5,11.5,0,0,0,11.5,11.5,11.5,11.5,0,0,0,11.5-11.5m-11.5,6.38a6.42,6.42,0,0,1-6.38-6.38,6.42,6.42,0,0,1,6.38-6.38,6.42,6.42,0,0,1,6.38,6.38,6.37,6.37,0,0,1-6.38,6.38"/></clipPath><clipPath id="k"><path class="b" d="M-707.59-216.15a1.7,1.7,0,0,0-.7.1c-10.8,2.2-18.3,9.3-20.1,19-2,11.2.2,21.3,6.5,30.1a3.37,3.37,0,0,0,2.8,1.4,3.06,3.06,0,0,0,2-.7,3.28,3.28,0,0,0,1.4-2.2,4,4,0,0,0-.6-2.6c-5.3-7.3-7-15.4-5.3-24.8,1.2-6.9,6.7-11.9,14.7-13.5a3.41,3.41,0,0,0,2.2-1.5,3.44,3.44,0,0,0,.5-2.6,3.52,3.52,0,0,0-3.4-2.7"/></clipPath><clipPath id="l"><path class="b" d="M-742.59-108.55a9.71,9.71,0,0,0-9.7,9.7,9.71,9.71,0,0,0,9.7,9.7,9.77,9.77,0,0,0,9.7-9.7,9.65,9.65,0,0,0-9.7-9.7m0,14.93a5.12,5.12,0,0,1-5.13-5.13,5.24,5.24,0,0,1,5.13-5.13,5.24,5.24,0,0,1,5.13,5.13,5.12,5.12,0,0,1-5.13,5.13"/></clipPath><clipPath id="m"><path class="c" d="M151.25,67.76V67c0-7.36-5.21-13.32-11.49-13.32a11.16,11.16,0,0,0-9.18,5.21,13.67,13.67,0,0,0-11.08-6.12h-.25a13.69,13.69,0,0,0-12,7,15.54,15.54,0,0,0-12.41-6.2,15.07,15.07,0,0,0-7.52,2,14.19,14.19,0,0,0-5.54,5.3,15.53,15.53,0,0,0-13.15-7.2A16.47,16.47,0,0,0,62.27,55a15.65,15.65,0,0,0-6.62,5.62,13.72,13.72,0,0,0-17.12-4.88A14.18,14.18,0,0,0,33,60.57a11,11,0,0,0-9.09-5c-5.79,0-10.67,5-11.42,11.58a2.63,2.63,0,0,0-.08.74v14a7.18,7.18,0,0,0,2,4.88,6.78,6.78,0,0,0-2,4.88v14.88c0,7.36,5.21,13.32,11.5,13.32a11.16,11.16,0,0,0,9.18-5.21,13.7,13.7,0,0,0,11,6.12h.24a13.47,13.47,0,0,0,11.91-7,15.55,15.55,0,0,0,12.49,6.2,15.44,15.44,0,0,0,13.15-7.19A15.51,15.51,0,0,0,95,119.86a16.54,16.54,0,0,0,6.37-1.32,15.58,15.58,0,0,0,6.61-5.63,13.7,13.7,0,0,0,22.83,0,11,11,0,0,0,9.09,5c5.79,0,10.67-5,11.41-11.58a4.78,4.78,0,0,0,.17-.66V91.58a7.17,7.17,0,0,0-2-4.88,7.17,7.17,0,0,0,2-4.88ZM17,67.93c.42-4.39,3.39-7.86,6.87-7.86s6.53,3.47,6.94,7.94a2.4,2.4,0,0,0,2.32,2.07,2.3,2.3,0,0,0,2.31-2.24,8.82,8.82,0,0,1,8.94-8.51h.24a8.78,8.78,0,0,1,8.6,8.51,2.38,2.38,0,0,0,2.4,2.24A2.27,2.27,0,0,0,58,68a10.74,10.74,0,0,1,10.75-9.84h.83A10.66,10.66,0,0,1,79.47,68a2.48,2.48,0,0,0,2.32,2.07A2.33,2.33,0,0,0,84.1,68a10.74,10.74,0,0,1,10.75-9.84h.83A10.66,10.66,0,0,1,105.6,68a2.4,2.4,0,0,0,2.32,2.07,2.31,2.31,0,0,0,2.31-2.32V66a8.9,8.9,0,0,1,8.94-8.76h.16a9,9,0,0,1,8.77,9.1V67.6a2.29,2.29,0,0,0,2.31,2.23,2.39,2.39,0,0,0,2.32-2.4v-.66c0-4.8,3.06-8.68,6.86-8.68s6.87,3.88,6.87,8.76v14.8a2.62,2.62,0,0,1-2.65,2.65l-8.44.08A2.66,2.66,0,0,1,133,82.9a2.84,2.84,0,0,0-2.57-1.58,3.47,3.47,0,0,0-1.24.25,2.6,2.6,0,0,0-1.32,1.33,2.68,2.68,0,0,1-2.4,1.48H113a2.87,2.87,0,0,1-2.4-1.4,2.86,2.86,0,0,0-2.64-1.57A3,3,0,0,0,105.27,83a2.66,2.66,0,0,1-2.4,1.4h-16a2.87,2.87,0,0,1-2.4-1.4,2.87,2.87,0,0,0-2.64-1.57,2.44,2.44,0,0,0-1.33.33A2.57,2.57,0,0,0,79.22,83a2.58,2.58,0,0,1-2.4,1.4H60.53A2.46,2.46,0,0,1,58.22,83a2.88,2.88,0,0,0-2.65-1.57A3.08,3.08,0,0,0,52.92,83a2.82,2.82,0,0,1-2.31,1.4H38.2A2.7,2.7,0,0,1,36,83.14a3.26,3.26,0,0,0-4.47-1,2.93,2.93,0,0,0-1,1,2.69,2.69,0,0,1-2.23,1.24h-8.6A2.61,2.61,0,0,1,17,81.74V67.93ZM146.7,105.47c-.41,4.38-3.39,7.86-6.86,7.86s-6.53-3.48-7-7.94a2.4,2.4,0,0,0-2.4-2.07h0a2.33,2.33,0,0,0-2.23,2.23,8.81,8.81,0,0,1-8.93,8.52h-.25a8.79,8.79,0,0,1-8.6-8.52,2.31,2.31,0,0,0-2.4-2.23,2.26,2.26,0,0,0-2.31,2.07A10.74,10.74,0,0,1,95,115.23h-.83a10.65,10.65,0,0,1-9.92-9.84,2.42,2.42,0,0,0-2.4-2.07,2.34,2.34,0,0,0-2.32,2.07,10.73,10.73,0,0,1-10.75,9.84H68a10.66,10.66,0,0,1-9.92-9.84,2.39,2.39,0,0,0-2.31-2.07,2.31,2.31,0,0,0-2.32,2.32v1.65A8.76,8.76,0,0,1,44.65,116h-.24a8.94,8.94,0,0,1-8.77-9.09v-1.24a2.31,2.31,0,0,0-2.32-2.24h0a2.62,2.62,0,0,0-1.65.67,2.31,2.31,0,0,0-.66,1.65v.74c0,4.8-3.06,8.77-6.87,8.77s-7.11-4-7.11-8.77V91.66A2.62,2.62,0,0,1,19.68,89h8.43a2.75,2.75,0,0,1,2.4,1.49,2.83,2.83,0,0,0,2.57,1.57,2.14,2.14,0,0,0,1.24-.33,2.54,2.54,0,0,0,1.32-1.32A2.67,2.67,0,0,1,38,88.93H50.53a2.83,2.83,0,0,1,2.39,1.41,2.88,2.88,0,0,0,2.65,1.57,2.38,2.38,0,0,0,1.32-.33,2.25,2.25,0,0,0,1.24-1.24,2.61,2.61,0,0,1,2.4-1.41H76.82a2.47,2.47,0,0,1,2.32,1.41,2.88,2.88,0,0,0,2.65,1.57,2.4,2.4,0,0,0,1.32-.33,2.62,2.62,0,0,0,1.24-1.24,2.6,2.6,0,0,1,2.4-1.41H103a2.47,2.47,0,0,1,2.31,1.41A3.15,3.15,0,0,0,108,91.91a4,4,0,0,0,1.41-.33,2.58,2.58,0,0,0,1.15-1.16A2.84,2.84,0,0,1,112.88,89h12.4a2.55,2.55,0,0,1,2.24,1.25,3.29,3.29,0,0,0,2.73,1.48,3.45,3.45,0,0,0,1.73-.49,2.87,2.87,0,0,0,1-1A2.7,2.7,0,0,1,135.21,89h8.6a2.62,2.62,0,0,1,2.65,2.65v13.56C146.62,105.22,146.62,105.39,146.7,105.47Z"/></clipPath><clipPath id="n"><rect class="c" x="12.4" y="52.79" width="138.93" height="67.81"/></clipPath></defs><title>icons</title><path class="a" d="M-708,24.23c-10.2,2.1-17.3,8.7-19,17.9-2,10.8.1,20.5,6.3,29a2.09,2.09,0,0,0,1.6.8,1.92,1.92,0,0,0,1.2-.4,2,2,0,0,0,.5-2.8c-5.5-7.7-7.3-16.1-5.6-25.9,1.4-7.5,7.3-12.9,15.8-14.7a2.05,2.05,0,0,0,1.6-2.4,2.12,2.12,0,0,0-2.4-1.5"/><g class="d"><rect class="a" x="-968.29" y="-2124.87" width="2800" height="6362"/></g><path class="a" d="M-611.89,98.43a12.63,12.63,0,0,0-12.6,12.7,2,2,0,0,0,2,2,2,2,0,0,0,2-2,8.69,8.69,0,0,1,8.6-8.7,2,2,0,0,0,2-2,2,2,0,0,0-2-2"/><g class="e"><rect class="a" x="-968.29" y="-2124.87" width="2800" height="6362"/></g><path class="a" d="M-725.49,107.33a8.81,8.81,0,0,0-8.8,8.8,2,2,0,0,0,2,2,2,2,0,0,0,2-2,4.8,4.8,0,0,1,4.8-4.8,2,2,0,0,0,2-2,2,2,0,0,0-2-2"/><g class="f"><rect class="a" x="-968.29" y="-2124.87" width="2800" height="6362"/></g><path class="a" d="M-626.69,79.43a11.5,11.5,0,0,0-11.5-11.5,11.5,11.5,0,0,0-11.5,11.5,11.5,11.5,0,0,0,11.5,11.5,11.5,11.5,0,0,0,11.5-11.5m-11.5,6.38a6.42,6.42,0,0,1-6.38-6.38,6.43,6.43,0,0,1,6.38-6.38,6.43,6.43,0,0,1,6.38,6.38,6.37,6.37,0,0,1-6.38,6.38"/><g class="g"><rect class="a" x="-968.29" y="-2124.87" width="2800" height="6362"/></g><path class="a" d="M-707.59,22.73a1.7,1.7,0,0,0-.7.1c-10.8,2.2-18.3,9.3-20.1,19-2,11.2.2,21.3,6.5,30.1a3.37,3.37,0,0,0,2.8,1.4,3.06,3.06,0,0,0,2-.7,3.28,3.28,0,0,0,1.4-2.2,4,4,0,0,0-.6-2.6c-5.3-7.3-7-15.4-5.3-24.8,1.2-6.9,6.7-11.9,14.7-13.5a3.41,3.41,0,0,0,2.2-1.5,3.44,3.44,0,0,0,.5-2.6,3.52,3.52,0,0,0-3.4-2.7"/><g class="h"><rect class="a" x="-968.29" y="-2124.87" width="2800" height="6362"/></g><path class="a" d="M-742.59,130.33a9.71,9.71,0,0,0-9.7,9.7,9.71,9.71,0,0,0,9.7,9.7,9.77,9.77,0,0,0,9.7-9.7,9.65,9.65,0,0,0-9.7-9.7m0,14.93a5.12,5.12,0,0,1-5.13-5.13,5.24,5.24,0,0,1,5.13-5.12,5.24,5.24,0,0,1,5.13,5.12,5.12,5.12,0,0,1-5.13,5.13"/><g class="i"><rect class="a" x="-968.29" y="-2124.87" width="2800" height="6362"/></g><path class="b" d="M-708-214.65c-10.2,2.1-17.3,8.7-19,17.9-2,10.8.1,20.5,6.3,29a2.09,2.09,0,0,0,1.6.8,1.92,1.92,0,0,0,1.2-.4,2,2,0,0,0,.5-2.8c-5.5-7.7-7.3-16.1-5.6-25.9,1.4-7.5,7.3-12.9,15.8-14.7a2.05,2.05,0,0,0,1.6-2.4,2.12,2.12,0,0,0-2.4-1.5"/><g class="j"><rect class="b" x="-968.29" y="-2363.75" width="2800" height="6362"/></g><path class="b" d="M-611.89-140.45a12.63,12.63,0,0,0-12.6,12.7,2,2,0,0,0,2,2,2,2,0,0,0,2-2,8.69,8.69,0,0,1,8.6-8.7,2,2,0,0,0,2-2,2,2,0,0,0-2-2"/><g class="k"><rect class="b" x="-968.29" y="-2363.75" width="2800" height="6362"/></g><path class="b" d="M-725.49-131.55a8.81,8.81,0,0,0-8.8,8.8,2,2,0,0,0,2,2,2,2,0,0,0,2-2,4.8,4.8,0,0,1,4.8-4.8,2,2,0,0,0,2-2,2,2,0,0,0-2-2"/><g class="l"><rect class="b" x="-968.29" y="-2363.75" width="2800" height="6362"/></g><path class="b" d="M-626.69-159.45a11.5,11.5,0,0,0-11.5-11.5,11.5,11.5,0,0,0-11.5,11.5,11.5,11.5,0,0,0,11.5,11.5,11.5,11.5,0,0,0,11.5-11.5m-11.5,6.38a6.42,6.42,0,0,1-6.38-6.38,6.42,6.42,0,0,1,6.38-6.38,6.42,6.42,0,0,1,6.38,6.38,6.37,6.37,0,0,1-6.38,6.38"/><g class="m"><rect class="b" x="-968.29" y="-2363.75" width="2800" height="6362"/></g><path class="b" d="M-707.59-216.15a1.7,1.7,0,0,0-.7.1c-10.8,2.2-18.3,9.3-20.1,19-2,11.2.2,21.3,6.5,30.1a3.37,3.37,0,0,0,2.8,1.4,3.06,3.06,0,0,0,2-.7,3.28,3.28,0,0,0,1.4-2.2,4,4,0,0,0-.6-2.6c-5.3-7.3-7-15.4-5.3-24.8,1.2-6.9,6.7-11.9,14.7-13.5a3.41,3.41,0,0,0,2.2-1.5,3.44,3.44,0,0,0,.5-2.6,3.52,3.52,0,0,0-3.4-2.7"/><g class="n"><rect class="b" x="-968.29" y="-2363.75" width="2800" height="6362"/></g><path class="b" d="M-742.59-108.55a9.71,9.71,0,0,0-9.7,9.7,9.71,9.71,0,0,0,9.7,9.7,9.77,9.77,0,0,0,9.7-9.7,9.65,9.65,0,0,0-9.7-9.7m0,14.93a5.12,5.12,0,0,1-5.13-5.13,5.24,5.24,0,0,1,5.13-5.13,5.24,5.24,0,0,1,5.13,5.13,5.12,5.12,0,0,1-5.13,5.13"/><g class="o"><rect class="b" x="-968.29" y="-2363.75" width="2800" height="6362"/></g><g class="p"><g class="q"><g class="r"><rect class="a" x="4.13" y="44.52" width="155.47" height="84.35"/></g></g></g><path class="s" d="M32.91,29.64a100,100,0,0,0-13.58,16"/><path class="s" d="M144.57,45.6A74.79,74.79,0,0,0,82,11.74c-9.83,0-23.12,3-31.71,6.46"/><path class="s" d="M19.33,127.59a74.83,74.83,0,0,0,125.24,0"/><path class="s" d="M38.29,25.26A61,61,0,0,1,44,21.4"/></svg>