<?xml version="1.0" encoding="utf-8"?>
<!-- Generator: Adobe Illustrator 23.0.1, SVG Export Plug-In . SVG Version: 6.00 Build 0)  -->
<svg version="1.1" id="Layer_1" xmlns="http://www.w3.org/2000/svg" xmlns:xlink="http://www.w3.org/1999/xlink" x="0px" y="0px"
	 viewBox="0 0 168 82" style="enable-background:new 0 0 168 82;" xml:space="preserve">
<style type="text/css">
	.st0{clip-path:url(#SVGID_2_);}
	.st1{clip-path:url(#SVGID_4_);enable-background:new    ;}
	.st2{clip-path:url(#SVGID_6_);}
	.st3{clip-path:url(#SVGID_8_);}
	.st4{clip-path:url(#SVGID_10_);fill:#FFFFFF;}
</style>
<g>
	<defs>
		<rect id="SVGID_1_" x="0" y="0.1" width="168" height="82"/>
	</defs>
	<clipPath id="SVGID_2_">
		<use xlink:href="#SVGID_1_"  style="overflow:visible;"/>
	</clipPath>
	<g class="st0">
		<defs>
			<rect id="SVGID_3_" x="-1410" y="-2165.9" width="2800" height="6362"/>
		</defs>
		<clipPath id="SVGID_4_">
			<use xlink:href="#SVGID_3_"  style="overflow:visible;"/>
		</clipPath>
		<g class="st1">
			<g>
				<defs>
					<rect id="SVGID_5_" x="0" y="0.1" width="168" height="82"/>
				</defs>
				<clipPath id="SVGID_6_">
					<use xlink:href="#SVGID_5_"  style="overflow:visible;"/>
				</clipPath>
				<g class="st2">
					<defs>
						<path id="SVGID_7_" d="M167.9,18.2c0-0.1,0-0.3,0-0.4l0-0.1l0-0.1c0-0.1,0-0.2,0-0.3c0-8.9-6.3-16.1-13.9-16.1
							c-4.4,0-8.5,2.4-11.1,6.3c-2.9-4.5-7.9-7.2-13.4-7.4l-0.3,0c-6.1,0-11.6,3.3-14.5,8.5c-3.5-4.7-9.1-7.5-15-7.5
							c-3.2,0-6.3,0.8-9.1,2.4c-2.8,1.5-5.1,3.7-6.7,6.4c-3.4-5.4-9.4-8.7-15.9-8.7c-2.7,0-5.3,0.6-7.7,1.6c-3.3,1.5-6,3.8-8,6.8
							c-3-4.6-8.2-7.4-13.8-7.4c-2.4,0-4.7,0.5-6.9,1.5C28.9,5,26.6,7,24.9,9.5c-2.6-3.8-6.6-6.1-11-6.1c-7,0-12.9,6-13.8,14
							C0,17.8,0,18,0,18.3v16.9c0,2.2,0.9,4.3,2.4,5.9C0.8,42.7,0,44.8,0,47l0,17c0,0.1,0,0.3,0,0.3V65c0,8.9,6.3,16.1,13.9,16.1
							c4.4,0,8.5-2.4,11.1-6.3c2.9,4.4,7.8,7.2,13.3,7.4h0.3c6.1,0,11.6-3.3,14.4-8.5c3.5,4.7,9.1,7.5,15.1,7.5
							c3.2,0,6.3-0.8,9.1-2.3c2.8-1.5,5.1-3.8,6.8-6.4c3.4,5.4,9.4,8.7,15.9,8.7c2.7,0,5.3-0.6,7.7-1.6c3.3-1.5,6-3.8,8-6.8
							c3,4.6,8.2,7.4,13.8,7.4c2.4,0,4.7-0.5,6.9-1.5c2.8-1.3,5.2-3.3,6.9-5.9c2.6,3.8,6.6,6.1,11,6.1c7,0,12.9-6,13.8-14
							c0.1-0.2,0.1-0.5,0.2-0.8V47c0-2.2-0.9-4.3-2.4-5.9c1.5-1.6,2.4-3.7,2.4-5.9L167.9,18.2z M5.6,18.4c0.5-5.3,4.1-9.5,8.3-9.5
							c4.2,0,7.9,4.2,8.4,9.6c0.2,1.4,1.4,2.5,2.8,2.5c1.5,0,2.8-1.2,2.8-2.7C28.1,12.5,32.8,8,38.7,8L39,8
							c5.7,0.2,10.3,4.7,10.4,10.3c0.1,1.5,1.3,2.7,2.9,2.7c1.5,0,2.7-1.1,2.8-2.5c0.5-6.7,6.2-11.9,13-11.9c0.3,0,0.7,0,1,0
							c6.5,0.5,11.5,5.5,12,11.9c0.2,1.4,1.4,2.4,2.8,2.5c1.4,0,2.7-1.1,2.8-2.5c0.5-6.7,6.2-11.9,13-11.9c0.3,0,0.7,0,1,0
							c6.5,0.5,11.5,5.5,12,11.9c0.2,1.4,1.4,2.5,2.8,2.5c1.5,0,2.8-1.2,2.8-2.8v-2.1c0-2.8,1.2-5.5,3.2-7.5c2-2,4.7-3.1,7.6-3.1
							l0.2,0c6,0.2,10.7,5.1,10.6,11v1.5c0,1.5,1.3,2.7,2.8,2.7c1.5,0,2.8-1.3,2.8-2.9v-0.8c0-5.8,3.7-10.5,8.3-10.5
							c4.6,0,8.3,4.7,8.3,10.6v0.7c0,0.2,0,0.4,0,0.6v16.6c0,1.8-1.4,3.2-3.2,3.2l-10.2,0.1c-1.2,0-2.4-0.7-2.9-1.8
							c-0.6-1.2-1.8-1.9-3.1-1.9c-0.5,0-1,0.1-1.5,0.3c-0.7,0.3-1.3,0.9-1.6,1.6c-0.5,1.1-1.7,1.8-2.9,1.8h-15.1
							c-1.2,0-2.3-0.7-2.9-1.7c-0.6-1.2-1.8-1.9-3.2-1.9c-1.3,0-2.6,0.7-3.2,1.9c-0.6,1.1-1.7,1.7-2.9,1.7H90
							c-1.2,0-2.3-0.7-2.9-1.7c-0.6-1.2-1.8-1.9-3.2-1.9c-0.6,0-1.1,0.1-1.6,0.4c-0.7,0.3-1.2,0.9-1.5,1.5c-0.6,1.1-1.6,1.7-2.9,1.7
							H58.2c-1.2,0-2.3-0.6-2.8-1.7c-0.6-1.2-1.8-1.9-3.2-1.9c-1.3,0-2.5,0.7-3.2,1.9c-0.6,1-1.7,1.7-2.8,1.7h-15
							c-1.1,0-2.1-0.6-2.7-1.5c-0.7-1.1-2-1.8-3.3-1.8c-0.7,0-1.5,0.2-2.1,0.6c-0.5,0.3-0.9,0.7-1.2,1.2c-0.6,0.9-1.6,1.5-2.7,1.5
							H8.8c-1.8,0-3.2-1.4-3.2-3.2l0-16.4C5.6,18.7,5.6,18.5,5.6,18.4z M162.4,63.8c-0.5,5.3-4.1,9.5-8.3,9.5
							c-4.3,0-7.9-4.2-8.4-9.6c-0.2-1.4-1.4-2.5-2.9-2.5h0c-1.5,0.1-2.7,1.3-2.7,2.7c-0.2,5.8-4.9,10.3-10.8,10.3l-0.3,0
							c-5.7-0.2-10.3-4.7-10.4-10.3c0-1.5-1.3-2.7-2.9-2.7c-1.5,0-2.7,1.1-2.8,2.5c-0.5,6.7-6.2,11.9-13,11.9c-0.3,0-0.7,0-1,0
							c-6.5-0.5-11.5-5.5-12-11.9c-0.2-1.4-1.4-2.5-2.9-2.5c-1.4,0-2.7,1.1-2.8,2.5c-0.5,6.7-6.2,11.9-13,11.9c-0.3,0-0.7,0-1,0
							c-6.5-0.5-11.5-5.5-12-11.9c-0.2-1.4-1.4-2.5-2.8-2.5c-1.5,0-2.8,1.2-2.8,2.8V66c0,2.8-1.2,5.5-3.2,7.5c-1.9,1.9-4.7,3-7.4,3
							l-0.3,0c-6-0.2-10.7-5-10.6-11v-1.5c0-1.5-1.3-2.7-2.8-2.7h0h0c-0.7,0-1.4,0.3-2,0.8c-0.5,0.5-0.8,1.2-0.8,2V65
							c0,5.8-3.7,10.6-8.3,10.6S5.6,70.8,5.6,65v-0.7c0-0.2,0-0.4,0-0.6V47.1c0-1.8,1.4-3.2,3.2-3.2H19c1.2,0,2.3,0.7,2.9,1.8
							c0.6,1.2,1.8,1.9,3.1,1.9c0.5,0,1.1-0.1,1.5-0.4c0.7-0.3,1.3-0.9,1.6-1.6c0.5-1.1,1.7-1.8,2.9-1.8h15.1c1.2,0,2.3,0.7,2.9,1.7
							c0.6,1.2,1.8,1.9,3.2,1.9c0.6,0,1.1-0.1,1.6-0.4c0.7-0.3,1.2-0.8,1.5-1.5c0.6-1.1,1.6-1.7,2.9-1.7h19.7c1.2,0,2.3,0.6,2.8,1.7
							c0.6,1.2,1.8,1.9,3.2,1.9c0.6,0,1.1-0.1,1.6-0.4c0.7-0.3,1.2-0.9,1.5-1.5c0.6-1.1,1.6-1.7,2.9-1.7h19.7c1.2,0,2.3,0.6,2.8,1.7
							c0.6,1.1,1.9,1.9,3.2,1.9c0.6,0,1.2-0.2,1.7-0.4c0.6-0.3,1.1-0.8,1.4-1.4c0.6-1,1.7-1.7,2.8-1.7h15c1.1,0,2.1,0.5,2.7,1.5
							c0.7,1.1,2,1.8,3.3,1.8c0.7,0,1.4-0.2,2.1-0.6c0.5-0.3,0.9-0.7,1.2-1.2c0.6-0.9,1.6-1.5,2.7-1.5l10.4,0c1.8,0,3.2,1.4,3.2,3.2
							l0,16.4C162.3,63.5,162.3,63.7,162.4,63.8z"/>
					</defs>
					<clipPath id="SVGID_8_">
						<use xlink:href="#SVGID_7_"  style="overflow:visible;"/>
					</clipPath>
					<g class="st3">
						<defs>
							<rect id="SVGID_9_" x="0" y="0.1" width="168" height="82"/>
						</defs>
						<clipPath id="SVGID_10_">
							<use xlink:href="#SVGID_9_"  style="overflow:visible;"/>
						</clipPath>
						<rect x="-10" y="-9.9" class="st4" width="188" height="102"/>
					</g>
				</g>
			</g>
		</g>
	</g>
</g>
</svg>
