<?xml version="1.0" encoding="utf-8"?>
<!-- Generator: Adobe Illustrator 23.0.1, SVG Export Plug-In . SVG Version: 6.00 Build 0)  -->
<svg version="1.1" id="Layer_1" xmlns="http://www.w3.org/2000/svg" xmlns:xlink="http://www.w3.org/1999/xlink" x="0px" y="0px"
	 viewBox="0 0 326.7 30" style="enable-background:new 0 0 326.7 30;" xml:space="preserve">
<style type="text/css">
	.st0{clip-path:url(#SVGID_2_);fill:#FFFFFF;}
</style>
<g>
	<defs>
		<path id="SVGID_1_" d="M311.2,28.2c2.5,0,4.5-0.4,6.3-1.1s3-1.7,3.9-3c0.9-1.3,1.3-2.6,1.3-4.2c0-1.8-0.5-3.2-1.4-4.2
			c-0.9-1-2.1-1.8-3.3-2.3c-1.3-0.5-2.9-0.9-4.9-1.3c-1.7-0.4-3-0.7-3.8-1.1c-0.8-0.3-1.2-0.9-1.2-1.5c0-0.7,0.3-1.2,1-1.7
			c0.7-0.4,1.7-0.6,3.2-0.6c2.3,0,4.7,0.7,7.1,2l2.2-5.4c-1.3-0.7-2.7-1.3-4.3-1.7c-1.6-0.4-3.3-0.6-5-0.6c-2.5,0-4.6,0.4-6.3,1.1
			c-1.7,0.7-3,1.7-3.8,3c-0.9,1.3-1.3,2.7-1.3,4.2c0,1.8,0.5,3.2,1.4,4.3c0.9,1.1,2,1.8,3.3,2.3c1.3,0.5,2.9,0.9,4.9,1.3
			c1.8,0.4,3,0.8,3.8,1.1c0.8,0.4,1.2,0.9,1.2,1.6c0,1.4-1.4,2.1-4.2,2.1c-1.5,0-3-0.2-4.5-0.7c-1.5-0.5-2.9-1.1-4-1.8l-2.4,5.4
			c1.2,0.9,2.8,1.5,4.8,2.1C307.1,28,309.1,28.2,311.2,28.2z M298.1,27.7v-5.6h-13.5v-4.7h11.4v-5.4h-11.4V7.6h13V2h-20.2v25.8
			H298.1z M274.5,27.7V22h-12.3V2H255v25.8H274.5z M249.8,27.7V2h-7.3v25.8H249.8z M214.1,27.7V14.4l6.6,10.7h3.2l6.6-11.1l0.1,13.6
			h6.7L237.3,2h-6l-8.8,14.9L213.4,2h-6v25.8H214.1z M192.6,28.2c2.5,0,4.5-0.4,6.3-1.1s3-1.7,3.9-3c0.9-1.3,1.3-2.6,1.3-4.2
			c0-1.8-0.5-3.2-1.4-4.2c-0.9-1-2.1-1.8-3.3-2.3c-1.3-0.5-2.9-0.9-4.9-1.3c-1.7-0.4-3-0.7-3.8-1.1c-0.8-0.3-1.2-0.9-1.2-1.5
			c0-0.7,0.3-1.2,1-1.7c0.7-0.4,1.7-0.6,3.2-0.6c2.3,0,4.7,0.7,7.1,2l2.2-5.4c-1.3-0.7-2.7-1.3-4.3-1.7c-1.6-0.4-3.3-0.6-5-0.6
			c-2.5,0-4.6,0.4-6.3,1.1c-1.7,0.7-3,1.7-3.8,3c-0.9,1.3-1.3,2.7-1.3,4.2c0,1.8,0.5,3.2,1.4,4.3c0.9,1.1,2,1.8,3.3,2.3
			c1.3,0.5,2.9,0.9,4.9,1.3c1.8,0.4,3,0.8,3.8,1.1c0.8,0.4,1.2,0.9,1.2,1.6c0,1.4-1.4,2.1-4.2,2.1c-1.5,0-3-0.2-4.5-0.7
			c-1.5-0.5-2.9-1.1-4-1.8l-2.4,5.4c1.2,0.9,2.8,1.5,4.8,2.1C188.5,28,190.6,28.2,192.6,28.2z M159.4,27.7V10.3l14.2,17.4h3.9V2
			h-4.7v17.4L158.6,2h-3.9v25.8H159.4z M149.3,27.7v-4h-14.5v-7.1h12.4v-3.9h-12.4V6h14V2H130v25.8H149.3z M113.7,28.1
			c1.9,0,3.7-0.3,5.4-0.8c1.8-0.6,3.3-1.4,4.6-2.4V14.6h-4.5v8c-1.5,0.9-3.3,1.3-5.3,1.3c-1.8,0-3.4-0.4-4.8-1.2
			c-1.4-0.8-2.5-1.9-3.3-3.2c-0.8-1.4-1.2-2.9-1.2-4.6c0-1.8,0.4-3.3,1.2-4.7c0.8-1.4,1.9-2.4,3.3-3.2c1.4-0.8,3-1.1,4.8-1.1
			c2.8,0,5.1,1,7.1,2.9l3-2.9c-1.2-1.4-2.7-2.4-4.5-3.1c-1.8-0.7-3.7-1.1-5.9-1.1c-2.6,0-5,0.6-7.2,1.7c-2.1,1.1-3.8,2.7-5,4.7
			c-1.2,2-1.8,4.3-1.8,6.8c0,2.5,0.6,4.8,1.8,6.8c1.2,2,2.9,3.6,5,4.7S111,28.1,113.7,28.1z M89,27.7V4.3H98V2H77.2v2.4h9.1v23.4H89
			z M56.7,27.7l8.3-11.3l8.3,11.3h3.2l-9.8-13.3L75.7,2h-2.9l-7.7,10.5L57.3,2h-3.1l9.2,12.5l-9.8,13.2H56.7z M50.7,27.7v-2.4H35.2
			v-9.6h13.3v-2.3H35.2V4.3h14.9V2H32.5v25.8H50.7z M5.3,27.7V6.8l16.6,20.9h2.2V2h-2.7v20.9L4.8,2H2.6v25.8H5.3z"/>
	</defs>
	<clipPath id="SVGID_2_">
		<use xlink:href="#SVGID_1_"  style="overflow:visible;"/>
	</clipPath>
	<rect x="-2.4" y="-3.5" class="st0" width="330" height="36.8"/>
</g>
</svg>
