<svg xmlns="http://www.w3.org/2000/svg" xmlns:xlink="http://www.w3.org/1999/xlink" viewBox="0 0 164 176"><defs><style>.a{fill:#fff;}.b{fill:#4b7c9c;}.c{clip-path:url(#a);}.d{clip-path:url(#b);}.e{clip-path:url(#c);}.f{clip-path:url(#d);}.g{clip-path:url(#e);}.h{clip-path:url(#f);}.i{clip-path:url(#g);}.j{clip-path:url(#h);}.k{clip-path:url(#i);}.l{clip-path:url(#j);}.m{clip-path:url(#k);}.n{clip-path:url(#l);}.o{fill:none;stroke:#4b7c9c;stroke-linecap:round;stroke-miterlimit:10;stroke-width:5px;}</style><clipPath id="a"><path class="a" d="M-1299.34,260.88c-10.2,2.1-17.3,8.7-19,17.9-2,10.8.1,20.5,6.3,29a2.09,2.09,0,0,0,1.6.8,1.92,1.92,0,0,0,1.2-.4,2,2,0,0,0,.5-2.8c-5.5-7.7-7.3-16.1-5.6-25.9,1.4-7.5,7.3-12.9,15.8-14.7a2.05,2.05,0,0,0,1.6-2.4,2.12,2.12,0,0,0-2.4-1.5"/></clipPath><clipPath id="b"><path class="a" d="M-1203.24,335.08a12.63,12.63,0,0,0-12.6,12.7,2,2,0,0,0,2,2,2,2,0,0,0,2-2,8.69,8.69,0,0,1,8.6-8.7,2,2,0,0,0,2-2,2,2,0,0,0-2-2"/></clipPath><clipPath id="c"><path class="a" d="M-1316.84,344a8.81,8.81,0,0,0-8.8,8.8,2,2,0,0,0,2,2,2,2,0,0,0,2-2,4.8,4.8,0,0,1,4.8-4.8,2,2,0,0,0,2-2,2,2,0,0,0-2-2"/></clipPath><clipPath id="d"><path class="a" d="M-1218,316.08a11.5,11.5,0,0,0-11.5-11.5,11.5,11.5,0,0,0-11.5,11.5,11.5,11.5,0,0,0,11.5,11.5,11.5,11.5,0,0,0,11.5-11.5m-11.5,6.38a6.42,6.42,0,0,1-6.38-6.38,6.42,6.42,0,0,1,6.38-6.37,6.42,6.42,0,0,1,6.37,6.37,6.36,6.36,0,0,1-6.37,6.38"/></clipPath><clipPath id="e"><path class="a" d="M-1298.94,259.38a1.7,1.7,0,0,0-.7.1c-10.8,2.2-18.3,9.3-20.1,19-2,11.2.2,21.3,6.5,30.1a3.37,3.37,0,0,0,2.8,1.4,3.06,3.06,0,0,0,2-.7,3.28,3.28,0,0,0,1.4-2.2,4,4,0,0,0-.6-2.6c-5.3-7.3-7-15.4-5.3-24.8,1.2-6.9,6.7-11.9,14.7-13.5a3.41,3.41,0,0,0,2.2-1.5,3.44,3.44,0,0,0,.5-2.6,3.52,3.52,0,0,0-3.4-2.7"/></clipPath><clipPath id="f"><path class="a" d="M-1333.94,367a9.71,9.71,0,0,0-9.7,9.7,9.71,9.71,0,0,0,9.7,9.7,9.77,9.77,0,0,0,9.7-9.7,9.65,9.65,0,0,0-9.7-9.7m0,14.93a5.12,5.12,0,0,1-5.13-5.13,5.24,5.24,0,0,1,5.13-5.12,5.24,5.24,0,0,1,5.12,5.12,5.12,5.12,0,0,1-5.12,5.13"/></clipPath><clipPath id="g"><path class="b" d="M-1299.34,22c-10.2,2.1-17.3,8.7-19,17.9-2,10.8.1,20.5,6.3,29a2.09,2.09,0,0,0,1.6.8,1.92,1.92,0,0,0,1.2-.4,2,2,0,0,0,.5-2.8c-5.5-7.7-7.3-16.1-5.6-25.9,1.4-7.5,7.3-12.9,15.8-14.7a2.05,2.05,0,0,0,1.6-2.4,2.12,2.12,0,0,0-2.4-1.5"/></clipPath><clipPath id="h"><path class="b" d="M-1203.24,96.2a12.63,12.63,0,0,0-12.6,12.7,2,2,0,0,0,2,2,2,2,0,0,0,2-2,8.69,8.69,0,0,1,8.6-8.7,2,2,0,0,0,2-2,2,2,0,0,0-2-2"/></clipPath><clipPath id="i"><path class="b" d="M-1316.84,105.1a8.81,8.81,0,0,0-8.8,8.8,2,2,0,0,0,2,2,2,2,0,0,0,2-2,4.8,4.8,0,0,1,4.8-4.8,2,2,0,0,0,2-2,2,2,0,0,0-2-2"/></clipPath><clipPath id="j"><path class="b" d="M-1218,77.2a11.5,11.5,0,0,0-11.5-11.5A11.5,11.5,0,0,0-1241,77.2a11.5,11.5,0,0,0,11.5,11.5A11.5,11.5,0,0,0-1218,77.2m-11.5,6.38a6.42,6.42,0,0,1-6.38-6.38,6.42,6.42,0,0,1,6.38-6.38,6.42,6.42,0,0,1,6.37,6.38,6.36,6.36,0,0,1-6.37,6.38"/></clipPath><clipPath id="k"><path class="b" d="M-1298.94,20.5a1.7,1.7,0,0,0-.7.1c-10.8,2.2-18.3,9.3-20.1,19-2,11.2.2,21.3,6.5,30.1a3.37,3.37,0,0,0,2.8,1.4,3.06,3.06,0,0,0,2-.7,3.28,3.28,0,0,0,1.4-2.2,4,4,0,0,0-.6-2.6c-5.3-7.3-7-15.4-5.3-24.8,1.2-6.9,6.7-11.9,14.7-13.5a3.41,3.41,0,0,0,2.2-1.5,3.44,3.44,0,0,0,.5-2.6,3.52,3.52,0,0,0-3.4-2.7"/></clipPath><clipPath id="l"><path class="b" d="M-1333.94,128.1a9.71,9.71,0,0,0-9.7,9.7,9.71,9.71,0,0,0,9.7,9.7,9.77,9.77,0,0,0,9.7-9.7,9.65,9.65,0,0,0-9.7-9.7m0,14.93a5.12,5.12,0,0,1-5.13-5.13,5.24,5.24,0,0,1,5.13-5.13,5.24,5.24,0,0,1,5.12,5.13,5.12,5.12,0,0,1-5.12,5.13"/></clipPath></defs><title>icons</title><path class="a" d="M-1299.34,260.88c-10.2,2.1-17.3,8.7-19,17.9-2,10.8.1,20.5,6.3,29a2.09,2.09,0,0,0,1.6.8,1.92,1.92,0,0,0,1.2-.4,2,2,0,0,0,.5-2.8c-5.5-7.7-7.3-16.1-5.6-25.9,1.4-7.5,7.3-12.9,15.8-14.7a2.05,2.05,0,0,0,1.6-2.4,2.12,2.12,0,0,0-2.4-1.5"/><g class="c"><rect class="a" x="-1559.64" y="-1888.22" width="2800" height="6362"/></g><path class="a" d="M-1203.24,335.08a12.63,12.63,0,0,0-12.6,12.7,2,2,0,0,0,2,2,2,2,0,0,0,2-2,8.69,8.69,0,0,1,8.6-8.7,2,2,0,0,0,2-2,2,2,0,0,0-2-2"/><g class="d"><rect class="a" x="-1559.64" y="-1888.22" width="2800" height="6362"/></g><path class="a" d="M-1316.84,344a8.81,8.81,0,0,0-8.8,8.8,2,2,0,0,0,2,2,2,2,0,0,0,2-2,4.8,4.8,0,0,1,4.8-4.8,2,2,0,0,0,2-2,2,2,0,0,0-2-2"/><g class="e"><rect class="a" x="-1559.64" y="-1888.22" width="2800" height="6362"/></g><path class="a" d="M-1218,316.08a11.5,11.5,0,0,0-11.5-11.5,11.5,11.5,0,0,0-11.5,11.5,11.5,11.5,0,0,0,11.5,11.5,11.5,11.5,0,0,0,11.5-11.5m-11.5,6.38a6.42,6.42,0,0,1-6.38-6.38,6.42,6.42,0,0,1,6.38-6.37,6.42,6.42,0,0,1,6.37,6.37,6.36,6.36,0,0,1-6.37,6.38"/><g class="f"><rect class="a" x="-1559.64" y="-1888.22" width="2800" height="6362"/></g><path class="a" d="M-1298.94,259.38a1.7,1.7,0,0,0-.7.1c-10.8,2.2-18.3,9.3-20.1,19-2,11.2.2,21.3,6.5,30.1a3.37,3.37,0,0,0,2.8,1.4,3.06,3.06,0,0,0,2-.7,3.28,3.28,0,0,0,1.4-2.2,4,4,0,0,0-.6-2.6c-5.3-7.3-7-15.4-5.3-24.8,1.2-6.9,6.7-11.9,14.7-13.5a3.41,3.41,0,0,0,2.2-1.5,3.44,3.44,0,0,0,.5-2.6,3.52,3.52,0,0,0-3.4-2.7"/><g class="g"><rect class="a" x="-1559.64" y="-1888.22" width="2800" height="6362"/></g><path class="a" d="M-1333.94,367a9.71,9.71,0,0,0-9.7,9.7,9.71,9.71,0,0,0,9.7,9.7,9.77,9.77,0,0,0,9.7-9.7,9.65,9.65,0,0,0-9.7-9.7m0,14.93a5.12,5.12,0,0,1-5.13-5.13,5.24,5.24,0,0,1,5.13-5.12,5.24,5.24,0,0,1,5.12,5.12,5.12,5.12,0,0,1-5.12,5.13"/><g class="h"><rect class="a" x="-1559.64" y="-1888.22" width="2800" height="6362"/></g><path class="b" d="M-1299.34,22c-10.2,2.1-17.3,8.7-19,17.9-2,10.8.1,20.5,6.3,29a2.09,2.09,0,0,0,1.6.8,1.92,1.92,0,0,0,1.2-.4,2,2,0,0,0,.5-2.8c-5.5-7.7-7.3-16.1-5.6-25.9,1.4-7.5,7.3-12.9,15.8-14.7a2.05,2.05,0,0,0,1.6-2.4,2.12,2.12,0,0,0-2.4-1.5"/><g class="i"><rect class="b" x="-1559.64" y="-2127.1" width="2800" height="6362"/></g><path class="b" d="M-1203.24,96.2a12.63,12.63,0,0,0-12.6,12.7,2,2,0,0,0,2,2,2,2,0,0,0,2-2,8.69,8.69,0,0,1,8.6-8.7,2,2,0,0,0,2-2,2,2,0,0,0-2-2"/><g class="j"><rect class="b" x="-1559.64" y="-2127.1" width="2800" height="6362"/></g><path class="b" d="M-1316.84,105.1a8.81,8.81,0,0,0-8.8,8.8,2,2,0,0,0,2,2,2,2,0,0,0,2-2,4.8,4.8,0,0,1,4.8-4.8,2,2,0,0,0,2-2,2,2,0,0,0-2-2"/><g class="k"><rect class="b" x="-1559.64" y="-2127.1" width="2800" height="6362"/></g><path class="b" d="M-1218,77.2a11.5,11.5,0,0,0-11.5-11.5A11.5,11.5,0,0,0-1241,77.2a11.5,11.5,0,0,0,11.5,11.5A11.5,11.5,0,0,0-1218,77.2m-11.5,6.38a6.42,6.42,0,0,1-6.38-6.38,6.42,6.42,0,0,1,6.38-6.38,6.42,6.42,0,0,1,6.37,6.38,6.36,6.36,0,0,1-6.37,6.38"/><g class="l"><rect class="b" x="-1559.64" y="-2127.1" width="2800" height="6362"/></g><path class="b" d="M-1298.94,20.5a1.7,1.7,0,0,0-.7.1c-10.8,2.2-18.3,9.3-20.1,19-2,11.2.2,21.3,6.5,30.1a3.37,3.37,0,0,0,2.8,1.4,3.06,3.06,0,0,0,2-.7,3.28,3.28,0,0,0,1.4-2.2,4,4,0,0,0-.6-2.6c-5.3-7.3-7-15.4-5.3-24.8,1.2-6.9,6.7-11.9,14.7-13.5a3.41,3.41,0,0,0,2.2-1.5,3.44,3.44,0,0,0,.5-2.6,3.52,3.52,0,0,0-3.4-2.7"/><g class="m"><rect class="b" x="-1559.64" y="-2127.1" width="2800" height="6362"/></g><path class="b" d="M-1333.94,128.1a9.71,9.71,0,0,0-9.7,9.7,9.71,9.71,0,0,0,9.7,9.7,9.77,9.77,0,0,0,9.7-9.7,9.65,9.65,0,0,0-9.7-9.7m0,14.93a5.12,5.12,0,0,1-5.13-5.13,5.24,5.24,0,0,1,5.13-5.13,5.24,5.24,0,0,1,5.12,5.13,5.12,5.12,0,0,1-5.12,5.13"/><g class="n"><rect class="b" x="-1559.64" y="-2127.1" width="2800" height="6362"/></g><path class="b" d="M156.82,120,131.15,91.25a11.13,11.13,0,0,0-8.31-3.72h-9.52V32.88c0-12.86-10.1-23.72-22.95-24a23.31,23.31,0,0,0-14.52,4.58L69.19,6.07a3,3,0,0,0-2.2-1l-.32,0a3,3,0,0,0-2.26,1.47A17.1,17.1,0,0,0,79.23,32.23a16.93,16.93,0,0,0,7-1.5,3,3,0,0,0,1-4.7l-7.37-8.15A17.45,17.45,0,0,1,90.38,14.8c9.55.31,17,8.46,17,18V55.16H55.77a3,3,0,0,0-3,3v8.39a3,3,0,0,0,3,3h51.61v18H61.46L25.17,46.94A11.14,11.14,0,0,0,5.72,54.21,11.61,11.61,0,0,0,8.8,62.06l4.52,5.13a2.93,2.93,0,0,0,3.66.58l.05,0a2.93,2.93,0,0,0,.72-4.5L13,57.83a5.21,5.21,0,0,1,7.76-6.94L57.92,92.48a3,3,0,0,0,2.21,1h62.71a5.21,5.21,0,0,1,3.88,1.73l25.67,28.74a5.2,5.2,0,0,1-.41,7.35,5.37,5.37,0,0,1-7.34-.42l-23.24-26a3,3,0,0,0-2.22-1H56.48a5.18,5.18,0,0,1-3.87-1.73L31,77.94a2.93,2.93,0,0,0-4.25-.13l0,0a2.93,2.93,0,0,0-.13,4.05l21.63,24.19a11.13,11.13,0,0,0,8.31,3.72h24v39.66H75.67a16.94,16.94,0,0,0-16.92,17,2.94,2.94,0,0,0,3,2.88h55.11a2.94,2.94,0,0,0,3-2.88,16.94,16.94,0,0,0-16.92-17h-3.3V109.81h18.27l22.36,25A11.14,11.14,0,0,0,159.64,128,11,11,0,0,0,156.82,120ZM79.23,26.29A11.17,11.17,0,0,1,68.14,13.77L79.46,26.29Zm28.15,37.26H58.74V61.1h48.64ZM86.44,109.81h7.2v39.66h-7.2Zm16.44,45.6a11,11,0,0,1,10.57,8H65.1a11,11,0,0,1,10.57-8Z"/><line class="o" x1="19.77" y1="70.19" x2="23.67" y2="74.66"/></svg>