<svg xmlns="http://www.w3.org/2000/svg" xmlns:xlink="http://www.w3.org/1999/xlink" viewBox="0 0 164 176"><defs><style>.a{fill:#fff;}.b{fill:#4b7c9c;}.c{clip-path:url(#a);}.d{clip-path:url(#b);}.e{clip-path:url(#c);}.f{clip-path:url(#d);}.g{clip-path:url(#e);}.h{clip-path:url(#f);}.i{clip-path:url(#g);}.j{clip-path:url(#h);}.k{clip-path:url(#i);}.l{clip-path:url(#j);}.m{clip-path:url(#k);}.n{clip-path:url(#l);}.o{fill:none;stroke:#4b7c9c;stroke-linecap:round;stroke-miterlimit:10;stroke-width:5px;}</style><clipPath id="a"><path class="a" d="M-1106.79,260.88c-10.2,2.1-17.3,8.7-19,17.9-2,10.8.1,20.5,6.3,29a2.09,2.09,0,0,0,1.6.8,1.92,1.92,0,0,0,1.2-.4,2,2,0,0,0,.5-2.8c-5.5-7.7-7.3-16.1-5.6-25.9,1.4-7.5,7.3-12.9,15.8-14.7a2.05,2.05,0,0,0,1.6-2.4,2.12,2.12,0,0,0-2.4-1.5"/></clipPath><clipPath id="b"><path class="a" d="M-1010.69,335.08a12.63,12.63,0,0,0-12.6,12.7,2,2,0,0,0,2,2,2,2,0,0,0,2-2,8.69,8.69,0,0,1,8.6-8.7,2,2,0,0,0,2-2,2,2,0,0,0-2-2"/></clipPath><clipPath id="c"><path class="a" d="M-1124.29,344a8.81,8.81,0,0,0-8.8,8.8,2,2,0,0,0,2,2,2,2,0,0,0,2-2,4.8,4.8,0,0,1,4.8-4.8,2,2,0,0,0,2-2,2,2,0,0,0-2-2"/></clipPath><clipPath id="d"><path class="a" d="M-1025.49,316.08a11.5,11.5,0,0,0-11.5-11.5,11.5,11.5,0,0,0-11.5,11.5,11.5,11.5,0,0,0,11.5,11.5,11.5,11.5,0,0,0,11.5-11.5m-11.5,6.38a6.42,6.42,0,0,1-6.37-6.38,6.42,6.42,0,0,1,6.37-6.37,6.42,6.42,0,0,1,6.38,6.37,6.37,6.37,0,0,1-6.38,6.38"/></clipPath><clipPath id="e"><path class="a" d="M-1106.39,259.38a1.7,1.7,0,0,0-.7.1c-10.8,2.2-18.3,9.3-20.1,19-2,11.2.2,21.3,6.5,30.1a3.37,3.37,0,0,0,2.8,1.4,3.06,3.06,0,0,0,2-.7,3.28,3.28,0,0,0,1.4-2.2,4,4,0,0,0-.6-2.6c-5.3-7.3-7-15.4-5.3-24.8,1.2-6.9,6.7-11.9,14.7-13.5a3.41,3.41,0,0,0,2.2-1.5,3.44,3.44,0,0,0,.5-2.6,3.52,3.52,0,0,0-3.4-2.7"/></clipPath><clipPath id="f"><path class="a" d="M-1141.39,367a9.71,9.71,0,0,0-9.7,9.7,9.71,9.71,0,0,0,9.7,9.7,9.77,9.77,0,0,0,9.7-9.7,9.65,9.65,0,0,0-9.7-9.7m0,14.93a5.11,5.11,0,0,1-5.12-5.13,5.24,5.24,0,0,1,5.12-5.12,5.24,5.24,0,0,1,5.13,5.12,5.12,5.12,0,0,1-5.13,5.13"/></clipPath><clipPath id="g"><path class="b" d="M-1106.79,22c-10.2,2.1-17.3,8.7-19,17.9-2,10.8.1,20.5,6.3,29a2.09,2.09,0,0,0,1.6.8,1.92,1.92,0,0,0,1.2-.4,2,2,0,0,0,.5-2.8c-5.5-7.7-7.3-16.1-5.6-25.9,1.4-7.5,7.3-12.9,15.8-14.7a2.05,2.05,0,0,0,1.6-2.4,2.12,2.12,0,0,0-2.4-1.5"/></clipPath><clipPath id="h"><path class="b" d="M-1010.69,96.2a12.63,12.63,0,0,0-12.6,12.7,2,2,0,0,0,2,2,2,2,0,0,0,2-2,8.69,8.69,0,0,1,8.6-8.7,2,2,0,0,0,2-2,2,2,0,0,0-2-2"/></clipPath><clipPath id="i"><path class="b" d="M-1124.29,105.1a8.81,8.81,0,0,0-8.8,8.8,2,2,0,0,0,2,2,2,2,0,0,0,2-2,4.8,4.8,0,0,1,4.8-4.8,2,2,0,0,0,2-2,2,2,0,0,0-2-2"/></clipPath><clipPath id="j"><path class="b" d="M-1025.49,77.2A11.5,11.5,0,0,0-1037,65.7a11.5,11.5,0,0,0-11.5,11.5A11.5,11.5,0,0,0-1037,88.7a11.5,11.5,0,0,0,11.5-11.5m-11.5,6.38a6.42,6.42,0,0,1-6.37-6.38,6.42,6.42,0,0,1,6.37-6.38,6.42,6.42,0,0,1,6.38,6.38,6.37,6.37,0,0,1-6.38,6.38"/></clipPath><clipPath id="k"><path class="b" d="M-1106.39,20.5a1.7,1.7,0,0,0-.7.1c-10.8,2.2-18.3,9.3-20.1,19-2,11.2.2,21.3,6.5,30.1a3.37,3.37,0,0,0,2.8,1.4,3.06,3.06,0,0,0,2-.7,3.28,3.28,0,0,0,1.4-2.2,4,4,0,0,0-.6-2.6c-5.3-7.3-7-15.4-5.3-24.8,1.2-6.9,6.7-11.9,14.7-13.5a3.41,3.41,0,0,0,2.2-1.5,3.44,3.44,0,0,0,.5-2.6,3.52,3.52,0,0,0-3.4-2.7"/></clipPath><clipPath id="l"><path class="b" d="M-1141.39,128.1a9.71,9.71,0,0,0-9.7,9.7,9.71,9.71,0,0,0,9.7,9.7,9.77,9.77,0,0,0,9.7-9.7,9.65,9.65,0,0,0-9.7-9.7m0,14.93a5.11,5.11,0,0,1-5.12-5.13,5.24,5.24,0,0,1,5.12-5.13,5.24,5.24,0,0,1,5.13,5.13,5.12,5.12,0,0,1-5.13,5.13"/></clipPath></defs><title>icons</title><path class="a" d="M-1106.79,260.88c-10.2,2.1-17.3,8.7-19,17.9-2,10.8.1,20.5,6.3,29a2.09,2.09,0,0,0,1.6.8,1.92,1.92,0,0,0,1.2-.4,2,2,0,0,0,.5-2.8c-5.5-7.7-7.3-16.1-5.6-25.9,1.4-7.5,7.3-12.9,15.8-14.7a2.05,2.05,0,0,0,1.6-2.4,2.12,2.12,0,0,0-2.4-1.5"/><g class="c"><rect class="a" x="-1367.09" y="-1888.22" width="2800" height="6362"/></g><path class="a" d="M-1010.69,335.08a12.63,12.63,0,0,0-12.6,12.7,2,2,0,0,0,2,2,2,2,0,0,0,2-2,8.69,8.69,0,0,1,8.6-8.7,2,2,0,0,0,2-2,2,2,0,0,0-2-2"/><g class="d"><rect class="a" x="-1367.09" y="-1888.22" width="2800" height="6362"/></g><path class="a" d="M-1124.29,344a8.81,8.81,0,0,0-8.8,8.8,2,2,0,0,0,2,2,2,2,0,0,0,2-2,4.8,4.8,0,0,1,4.8-4.8,2,2,0,0,0,2-2,2,2,0,0,0-2-2"/><g class="e"><rect class="a" x="-1367.09" y="-1888.22" width="2800" height="6362"/></g><path class="a" d="M-1025.49,316.08a11.5,11.5,0,0,0-11.5-11.5,11.5,11.5,0,0,0-11.5,11.5,11.5,11.5,0,0,0,11.5,11.5,11.5,11.5,0,0,0,11.5-11.5m-11.5,6.38a6.42,6.42,0,0,1-6.37-6.38,6.42,6.42,0,0,1,6.37-6.37,6.42,6.42,0,0,1,6.38,6.37,6.37,6.37,0,0,1-6.38,6.38"/><g class="f"><rect class="a" x="-1367.09" y="-1888.22" width="2800" height="6362"/></g><path class="a" d="M-1106.39,259.38a1.7,1.7,0,0,0-.7.1c-10.8,2.2-18.3,9.3-20.1,19-2,11.2.2,21.3,6.5,30.1a3.37,3.37,0,0,0,2.8,1.4,3.06,3.06,0,0,0,2-.7,3.28,3.28,0,0,0,1.4-2.2,4,4,0,0,0-.6-2.6c-5.3-7.3-7-15.4-5.3-24.8,1.2-6.9,6.7-11.9,14.7-13.5a3.41,3.41,0,0,0,2.2-1.5,3.44,3.44,0,0,0,.5-2.6,3.52,3.52,0,0,0-3.4-2.7"/><g class="g"><rect class="a" x="-1367.09" y="-1888.22" width="2800" height="6362"/></g><path class="a" d="M-1141.39,367a9.71,9.71,0,0,0-9.7,9.7,9.71,9.71,0,0,0,9.7,9.7,9.77,9.77,0,0,0,9.7-9.7,9.65,9.65,0,0,0-9.7-9.7m0,14.93a5.11,5.11,0,0,1-5.12-5.13,5.24,5.24,0,0,1,5.12-5.12,5.24,5.24,0,0,1,5.13,5.12,5.12,5.12,0,0,1-5.13,5.13"/><g class="h"><rect class="a" x="-1367.09" y="-1888.22" width="2800" height="6362"/></g><path class="b" d="M-1106.79,22c-10.2,2.1-17.3,8.7-19,17.9-2,10.8.1,20.5,6.3,29a2.09,2.09,0,0,0,1.6.8,1.92,1.92,0,0,0,1.2-.4,2,2,0,0,0,.5-2.8c-5.5-7.7-7.3-16.1-5.6-25.9,1.4-7.5,7.3-12.9,15.8-14.7a2.05,2.05,0,0,0,1.6-2.4,2.12,2.12,0,0,0-2.4-1.5"/><g class="i"><rect class="b" x="-1367.09" y="-2127.1" width="2800" height="6362"/></g><path class="b" d="M-1010.69,96.2a12.63,12.63,0,0,0-12.6,12.7,2,2,0,0,0,2,2,2,2,0,0,0,2-2,8.69,8.69,0,0,1,8.6-8.7,2,2,0,0,0,2-2,2,2,0,0,0-2-2"/><g class="j"><rect class="b" x="-1367.09" y="-2127.1" width="2800" height="6362"/></g><path class="b" d="M-1124.29,105.1a8.81,8.81,0,0,0-8.8,8.8,2,2,0,0,0,2,2,2,2,0,0,0,2-2,4.8,4.8,0,0,1,4.8-4.8,2,2,0,0,0,2-2,2,2,0,0,0-2-2"/><g class="k"><rect class="b" x="-1367.09" y="-2127.1" width="2800" height="6362"/></g><path class="b" d="M-1025.49,77.2A11.5,11.5,0,0,0-1037,65.7a11.5,11.5,0,0,0-11.5,11.5A11.5,11.5,0,0,0-1037,88.7a11.5,11.5,0,0,0,11.5-11.5m-11.5,6.38a6.42,6.42,0,0,1-6.37-6.38,6.42,6.42,0,0,1,6.37-6.38,6.42,6.42,0,0,1,6.38,6.38,6.37,6.37,0,0,1-6.38,6.38"/><g class="l"><rect class="b" x="-1367.09" y="-2127.1" width="2800" height="6362"/></g><path class="b" d="M-1106.39,20.5a1.7,1.7,0,0,0-.7.1c-10.8,2.2-18.3,9.3-20.1,19-2,11.2.2,21.3,6.5,30.1a3.37,3.37,0,0,0,2.8,1.4,3.06,3.06,0,0,0,2-.7,3.28,3.28,0,0,0,1.4-2.2,4,4,0,0,0-.6-2.6c-5.3-7.3-7-15.4-5.3-24.8,1.2-6.9,6.7-11.9,14.7-13.5a3.41,3.41,0,0,0,2.2-1.5,3.44,3.44,0,0,0,.5-2.6,3.52,3.52,0,0,0-3.4-2.7"/><g class="m"><rect class="b" x="-1367.09" y="-2127.1" width="2800" height="6362"/></g><path class="b" d="M-1141.39,128.1a9.71,9.71,0,0,0-9.7,9.7,9.71,9.71,0,0,0,9.7,9.7,9.77,9.77,0,0,0,9.7-9.7,9.65,9.65,0,0,0-9.7-9.7m0,14.93a5.11,5.11,0,0,1-5.12-5.13,5.24,5.24,0,0,1,5.12-5.13,5.24,5.24,0,0,1,5.13,5.13,5.12,5.12,0,0,1-5.13,5.13"/><g class="n"><rect class="b" x="-1367.09" y="-2127.1" width="2800" height="6362"/></g><path class="o" d="M158.89,53.08a75.69,75.69,0,1,1-151.38,0"/><path class="o" d="M83.65,59.68V73.06a9.73,9.73,0,0,1-9.73,9.73H65.33a9.72,9.72,0,0,1-9.72-9.73V59.68"/><path class="o" d="M111.19,59.68V73.06a9.73,9.73,0,0,1-9.73,9.73H92.87a9.72,9.72,0,0,1-9.72-9.73V59.68"/><path class="o" d="M40.88,112.33S55,100.56,72.05,107.26"/><path class="o" d="M132.5,108.83s-53.9-19-62.41,5.69"/><path class="o" d="M7.6,50.5c6.12-6.59,32.94-8.34,45.75-8.54s18.76,4.6,31.35,4.76C94,46.83,104,43.47,113.21,43c18.94-1,36.14,2.83,45.93,8.56"/><path class="o" d="M147.12,54.8c4.83-.71,6.83-.8,11.77-1.72,0,41.8-32.1,85.72-73.9,85.72S7.51,94.88,7.51,53.08c34.88,5.36,77.11,8.2,118.86,4.51"/><line class="o" x1="133.07" y1="56.61" x2="140.7" y2="55.63"/></svg>