<?xml version="1.0" encoding="utf-8"?>
<!-- Generator: Adobe Illustrator 23.0.1, SVG Export Plug-In . SVG Version: 6.00 Build 0)  -->
<svg version="1.1" id="Layer_1" xmlns="http://www.w3.org/2000/svg" xmlns:xlink="http://www.w3.org/1999/xlink" x="0px" y="0px"
	 viewBox="0 0 174 198" style="enable-background:new 0 0 174 198;" xml:space="preserve">
<style type="text/css">
	.st0{clip-path:url(#SVGID_2_);}
	.st1{clip-path:url(#SVGID_4_);}
	.st2{clip-path:url(#SVGID_6_);}
	.st3{clip-path:url(#SVGID_8_);fill:#FFFFFF;}
	.st4{clip-path:url(#SVGID_10_);}
	.st5{clip-path:url(#SVGID_12_);enable-background:new    ;}
	.st6{clip-path:url(#SVGID_14_);}
	.st7{clip-path:url(#SVGID_16_);}
	.st8{clip-path:url(#SVGID_18_);fill:#FFFFFF;}
	.st9{clip-path:url(#SVGID_20_);}
	.st10{clip-path:url(#SVGID_22_);fill:#FFFFFF;}
</style>
<g>
	<defs>
		<path id="SVGID_1_" d="M34.8,78.3c-8.3,1.6-14.1,7-15.5,14.2c-1.6,8.6,0.1,16.3,5.1,23.1c0.3,0.4,0.8,0.7,1.3,0.7
			c0.3,0,0.7-0.1,1-0.3c0.7-0.5,0.9-1.5,0.4-2.2c-4.5-6.1-6-12.8-4.5-20.6c1.1-5.9,5.9-10.3,12.9-11.7c0.9-0.2,1.5-1,1.3-1.9
			C36.5,78.7,35.7,78.1,34.8,78.3"/>
	</defs>
	<clipPath id="SVGID_2_">
		<use xlink:href="#SVGID_1_"  style="overflow:visible;"/>
	</clipPath>
	<g class="st0">
		<defs>
			<rect id="SVGID_3_" x="-1475.3" y="-2475.7" width="2800" height="6362"/>
		</defs>
		<clipPath id="SVGID_4_">
			<use xlink:href="#SVGID_3_"  style="overflow:visible;"/>
		</clipPath>
		<rect x="8.7" y="68.3" class="st1" width="38" height="58"/>
	</g>
</g>
<g>
	<defs>
		<path id="SVGID_5_" d="M34,76.3c-0.2,0-0.4,0-0.6,0.1c-8.7,1.7-14.7,7.3-16.1,15c-1.6,8.8,0.1,16.8,5.2,23.8
			c0.5,0.7,1.4,1.1,2.2,1.1c0.6,0,1.1-0.2,1.6-0.5c0.6-0.4,1-1.1,1.1-1.8c0.1-0.7-0.1-1.4-0.5-2c-4.2-5.8-5.6-12.2-4.2-19.6
			c1-5.4,5.4-9.4,11.7-10.7c0.7-0.1,1.4-0.6,1.8-1.2c0.4-0.6,0.6-1.3,0.4-2.1C36.4,77.2,35.3,76.3,34,76.3"/>
	</defs>
	<clipPath id="SVGID_6_">
		<use xlink:href="#SVGID_5_"  style="overflow:visible;"/>
	</clipPath>
	<g class="st2">
		<defs>
			<rect id="SVGID_7_" x="-1475.3" y="-2475.7" width="2800" height="6362"/>
		</defs>
		<clipPath id="SVGID_8_">
			<use xlink:href="#SVGID_7_"  style="overflow:visible;"/>
		</clipPath>
		<rect x="6.7" y="66.3" class="st3" width="40" height="60"/>
	</g>
</g>
<g>
	<defs>
		<rect id="SVGID_9_" x="6.7" y="65.5" width="113.4" height="130.8"/>
	</defs>
	<clipPath id="SVGID_10_">
		<use xlink:href="#SVGID_9_"  style="overflow:visible;"/>
	</clipPath>
	<g class="st4">
		<defs>
			<rect id="SVGID_11_" x="-1475.3" y="-2475.7" width="2800" height="6362"/>
		</defs>
		<clipPath id="SVGID_12_">
			<use xlink:href="#SVGID_11_"  style="overflow:visible;"/>
		</clipPath>
		<g class="st5">
			<g>
				<defs>
					<rect id="SVGID_13_" x="4.7" y="64.3" width="116" height="132"/>
				</defs>
				<clipPath id="SVGID_14_">
					<use xlink:href="#SVGID_13_"  style="overflow:visible;"/>
				</clipPath>
				<g class="st6">
					<defs>
						<path id="SVGID_15_" d="M115.8,78.6c-4.9-8-14.8-13.1-25.3-13.1c-1.1,0-2.1,0.1-3.2,0.2c-4.7,0.5-9.1,1.6-13.2,3.4
							c-3.6,1.6-7,2.3-10.4,2.3c-3.3,0-6.5-0.7-9.8-2.2c-5.6-2.5-11.2-3.7-16.8-3.7c-2.4,0-4.8,0.2-7.2,0.7
							c-12,2.5-20.3,10.4-22.3,21.4c-2.3,12.8,0.2,24.4,7.3,34.5c1.6,2.3,2.8,4.9,3.9,7.5l0.2,0.5c0.1,0.3,0.1,1.1,0.1,1.7l0,0.7
							c0,1.9,0,3.8,0,5.7h0.1c-0.3,1.9-0.2,6.3-0.2,7.4c0.3,8.7,2.2,18.7,2.9,21.6c1.6,7.9,8.4,24.5,15.6,28.2l0,0l0.2,0.1
							c1.3,0.5,2.6,0.8,3.8,0.8c1.7,0,3.3-0.5,4.8-1.5c10.3-6.9,11.3-37.2,11.4-43.2c0-3.2,2.6-5.9,5.6-5.9c3.2,0,5.8,2.7,5.8,6
							c0,0.4,0.2,9,1.5,18.4c1.9,13.3,5.2,21.7,9.9,24.8c1.5,1,3.1,1.5,4.8,1.5c1.3,0,2.6-0.3,3.8-0.8c0.1,0,0.2-0.1,0.4-0.2
							c5.7-3.5,8.6-8.4,10.6-12.4c2.8-5.6,4.6-11.9,5.8-19.3c0.2-3.5,0.3-7,0.5-10.4c0.5-10.4,0.9-20.3,1.7-24.4l1.9-3.3
							c0.6-1.1,1.2-2.1,1.9-3c5.9-7.9,8.6-16.9,8.4-27.5C120,88.4,118.6,83.2,115.8,78.6 M107.4,119c-0.9,1.2-1.6,2.4-2.3,3.6
							l-0.6,1c-1.6,2.6-2.3,5.5-2.3,8.5c-0.2,10.3-1,21.4-1.8,29.9c-1,7.1-2.8,13.1-5.4,18.5c-1.6,3.2-3.9,7.3-8.3,10
							c-0.6,0.2-1.1,0.3-1.6,0.3c-0.6,0-1.2-0.2-1.8-0.6c-6.1-4.1-8.7-25.8-8.9-38.6c0-6.3-5.1-11.5-11.3-11.5
							c-6,0-11.1,5.3-11.1,11.5c-0.2,12.8-2.8,34.5-8.9,38.6c-0.6,0.4-1.1,0.6-1.7,0.6c-0.5,0-1.1-0.1-1.6-0.3
							c-5.1-2.7-11.3-17.4-12.7-24.4c-0.2-1-0.4-2-0.5-2.9c-1.7-13.9-2-16.9-2.1-24.5c0-2,0-4,0-6l0-0.6c0-1.2,0.1-2.7-0.6-4.2
							l-0.2-0.5c-1.3-2.8-2.6-5.8-4.5-8.5C13,109.9,10.9,100,13,88.6c1.5-8.6,8.3-14.9,18-16.9c2.1-0.4,4.2-0.6,6.2-0.6
							c4.7,0,9.5,1.1,14.5,3.3c4,1.8,8,2.6,12,2.6c4.1,0,8.3-0.9,12.6-2.8c3.6-1.6,7.4-2.6,11.6-3c0.9-0.1,1.8-0.1,2.7-0.1
							c8.6,0,16.7,4.1,20.6,10.5c2.3,3.7,3.4,8,3.5,13.4C114.8,104.3,112.5,112.2,107.4,119"/>
					</defs>
					<clipPath id="SVGID_16_">
						<use xlink:href="#SVGID_15_"  style="overflow:visible;"/>
					</clipPath>
					<g class="st7">
						<defs>
							<rect id="SVGID_17_" x="6.7" y="64.3" width="114" height="132"/>
						</defs>
						<clipPath id="SVGID_18_">
							<use xlink:href="#SVGID_17_"  style="overflow:visible;"/>
						</clipPath>
						<rect x="-3.3" y="55.5" class="st8" width="133.4" height="150.8"/>
					</g>
				</g>
			</g>
		</g>
	</g>
</g>
<g>
	<defs>
		<path id="SVGID_19_" d="M161.6,0.3H99.2L77.7,6.9V5.2c0-1.3-1-2.3-2.3-2.3H51c-1.3,0-2.3,1-2.3,2.3v19.7c0,0,0,0.1,0,0.1
			c0,0.3,0,0.5,0.2,0.8l0,0c0,0,0,0,0,0l6.4,15.7c0.4,0.9,1.2,1.4,2.1,1.4H61v7.1h-4.4c-1.3,0-2.3,1-2.3,2.3v3.2c0,4.9,4,8.9,9,8.9
			c4.9,0,9-4,9-8.9v-3.2c0-1.3-1-2.3-2.3-2.3h-4.4v-7.1H69c0.9,0,1.8-0.6,2.1-1.4l6.4-15.7c0,0,0,0,0,0l0,0c0.1-0.2,0.1-0.5,0.2-0.8
			c0,0,0-0.1,0-0.1V24l21.1,6.6h62.8c5,0,9.1-4.1,9.1-9.1V9.3C170.7,4.3,166.7,0.3,161.6,0.3z M67.6,55.3c0,2.4-2,4.4-4.4,4.4
			c-2.4,0-4.4-2-4.4-4.4v-0.9h8.8V55.3z M53.3,7.4h19.9v0.9v14.2H53.3V7.4z M67.5,38.3H59l-4.6-11.2h17.6L67.5,38.3z M77.7,19.3
			v-7.6l21.8-6.8h48.2v21.3H99.5L77.7,19.3z M166.2,21.6c0,2.5-2,4.5-4.6,4.5h-9.3V4.8h9.3c2.5,0,4.6,2,4.6,4.5V21.6z"/>
	</defs>
	<clipPath id="SVGID_20_">
		<use xlink:href="#SVGID_19_"  style="overflow:visible;"/>
	</clipPath>
	<g class="st9">
		<defs>
			<rect id="SVGID_21_" x="-1475.3" y="-2475.7" width="2800" height="6362"/>
		</defs>
		<clipPath id="SVGID_22_">
			<use xlink:href="#SVGID_21_"  style="overflow:visible;"/>
		</clipPath>
		<rect x="38.7" y="-9.7" class="st10" width="142" height="84"/>
	</g>
</g>
</svg>
