<svg xmlns="http://www.w3.org/2000/svg" xmlns:xlink="http://www.w3.org/1999/xlink" viewBox="0 0 164 176"><defs><style>.a{fill:#fff;}.b{fill:#4b7c9c;}.c{clip-path:url(#a);}.d{clip-path:url(#b);}.e{clip-path:url(#c);}.f{clip-path:url(#d);}.g{clip-path:url(#e);}.h{clip-path:url(#f);}.i{clip-path:url(#g);}.j{clip-path:url(#h);}.k{clip-path:url(#i);}.l{clip-path:url(#j);}.m{clip-path:url(#k);}.n{clip-path:url(#l);}.o{fill:none;stroke:#fff;stroke-linecap:round;stroke-miterlimit:10;stroke-width:5px;}</style><clipPath id="a"><path class="a" d="M-907.24,24.23c-10.2,2.1-17.3,8.7-19,17.9-2,10.8.1,20.5,6.3,29a2.09,2.09,0,0,0,1.6.8,1.92,1.92,0,0,0,1.2-.4,2,2,0,0,0,.5-2.8c-5.5-7.7-7.3-16.1-5.6-25.9,1.4-7.5,7.3-12.9,15.8-14.7a2.05,2.05,0,0,0,1.6-2.4,2.12,2.12,0,0,0-2.4-1.5"/></clipPath><clipPath id="b"><path class="a" d="M-811.14,98.43a12.64,12.64,0,0,0-12.61,12.7,2,2,0,0,0,2,2,2,2,0,0,0,2-2,8.69,8.69,0,0,1,8.61-8.7,2,2,0,0,0,2-2,2,2,0,0,0-2-2"/></clipPath><clipPath id="c"><path class="a" d="M-924.74,107.33a8.81,8.81,0,0,0-8.8,8.8,2,2,0,0,0,2,2,2,2,0,0,0,2-2,4.8,4.8,0,0,1,4.8-4.8,2,2,0,0,0,2-2,2,2,0,0,0-2-2"/></clipPath><clipPath id="d"><path class="a" d="M-825.94,79.43a11.5,11.5,0,0,0-11.5-11.5,11.5,11.5,0,0,0-11.5,11.5,11.5,11.5,0,0,0,11.5,11.5,11.5,11.5,0,0,0,11.5-11.5m-11.5,6.38a6.42,6.42,0,0,1-6.38-6.38,6.43,6.43,0,0,1,6.38-6.38,6.43,6.43,0,0,1,6.37,6.38,6.36,6.36,0,0,1-6.37,6.38"/></clipPath><clipPath id="e"><path class="a" d="M-906.84,22.73a1.7,1.7,0,0,0-.7.1c-10.8,2.2-18.3,9.3-20.1,19-2,11.2.2,21.3,6.5,30.1a3.37,3.37,0,0,0,2.8,1.4,3.06,3.06,0,0,0,2-.7,3.28,3.28,0,0,0,1.4-2.2,4,4,0,0,0-.6-2.6c-5.3-7.3-7-15.4-5.3-24.8,1.2-6.9,6.7-11.9,14.7-13.5a3.41,3.41,0,0,0,2.2-1.5,3.44,3.44,0,0,0,.5-2.6,3.52,3.52,0,0,0-3.4-2.7"/></clipPath><clipPath id="f"><path class="a" d="M-941.84,130.33a9.71,9.71,0,0,0-9.7,9.7,9.71,9.71,0,0,0,9.7,9.7,9.77,9.77,0,0,0,9.7-9.7,9.65,9.65,0,0,0-9.7-9.7m0,14.93a5.12,5.12,0,0,1-5.13-5.13,5.24,5.24,0,0,1,5.13-5.12,5.24,5.24,0,0,1,5.12,5.12,5.12,5.12,0,0,1-5.12,5.13"/></clipPath><clipPath id="g"><path class="b" d="M-907.24-214.65c-10.2,2.1-17.3,8.7-19,17.9-2,10.8.1,20.5,6.3,29a2.09,2.09,0,0,0,1.6.8,1.92,1.92,0,0,0,1.2-.4,2,2,0,0,0,.5-2.8c-5.5-7.7-7.3-16.1-5.6-25.9,1.4-7.5,7.3-12.9,15.8-14.7a2.05,2.05,0,0,0,1.6-2.4,2.12,2.12,0,0,0-2.4-1.5"/></clipPath><clipPath id="h"><path class="b" d="M-811.14-140.45a12.64,12.64,0,0,0-12.61,12.7,2,2,0,0,0,2,2,2,2,0,0,0,2-2,8.69,8.69,0,0,1,8.61-8.7,2,2,0,0,0,2-2,2,2,0,0,0-2-2"/></clipPath><clipPath id="i"><path class="b" d="M-924.74-131.55a8.81,8.81,0,0,0-8.8,8.8,2,2,0,0,0,2,2,2,2,0,0,0,2-2,4.8,4.8,0,0,1,4.8-4.8,2,2,0,0,0,2-2,2,2,0,0,0-2-2"/></clipPath><clipPath id="j"><path class="b" d="M-825.94-159.45a11.5,11.5,0,0,0-11.5-11.5,11.5,11.5,0,0,0-11.5,11.5,11.5,11.5,0,0,0,11.5,11.5,11.5,11.5,0,0,0,11.5-11.5m-11.5,6.38a6.42,6.42,0,0,1-6.38-6.38,6.42,6.42,0,0,1,6.38-6.38,6.42,6.42,0,0,1,6.37,6.38,6.36,6.36,0,0,1-6.37,6.38"/></clipPath><clipPath id="k"><path class="b" d="M-906.84-216.15a1.7,1.7,0,0,0-.7.1c-10.8,2.2-18.3,9.3-20.1,19-2,11.2.2,21.3,6.5,30.1a3.37,3.37,0,0,0,2.8,1.4,3.06,3.06,0,0,0,2-.7,3.28,3.28,0,0,0,1.4-2.2,4,4,0,0,0-.6-2.6c-5.3-7.3-7-15.4-5.3-24.8,1.2-6.9,6.7-11.9,14.7-13.5a3.41,3.41,0,0,0,2.2-1.5,3.44,3.44,0,0,0,.5-2.6,3.52,3.52,0,0,0-3.4-2.7"/></clipPath><clipPath id="l"><path class="b" d="M-941.84-108.55a9.71,9.71,0,0,0-9.7,9.7,9.71,9.71,0,0,0,9.7,9.7,9.77,9.77,0,0,0,9.7-9.7,9.65,9.65,0,0,0-9.7-9.7m0,14.93A5.12,5.12,0,0,1-947-98.75a5.24,5.24,0,0,1,5.13-5.13,5.24,5.24,0,0,1,5.12,5.13,5.12,5.12,0,0,1-5.12,5.13"/></clipPath></defs><title>icons</title><path class="a" d="M-907.24,24.23c-10.2,2.1-17.3,8.7-19,17.9-2,10.8.1,20.5,6.3,29a2.09,2.09,0,0,0,1.6.8,1.92,1.92,0,0,0,1.2-.4,2,2,0,0,0,.5-2.8c-5.5-7.7-7.3-16.1-5.6-25.9,1.4-7.5,7.3-12.9,15.8-14.7a2.05,2.05,0,0,0,1.6-2.4,2.12,2.12,0,0,0-2.4-1.5"/><g class="c"><rect class="a" x="-1167.54" y="-2124.87" width="2800" height="6362"/></g><path class="a" d="M-811.14,98.43a12.64,12.64,0,0,0-12.61,12.7,2,2,0,0,0,2,2,2,2,0,0,0,2-2,8.69,8.69,0,0,1,8.61-8.7,2,2,0,0,0,2-2,2,2,0,0,0-2-2"/><g class="d"><rect class="a" x="-1167.54" y="-2124.87" width="2800" height="6362"/></g><path class="a" d="M-924.74,107.33a8.81,8.81,0,0,0-8.8,8.8,2,2,0,0,0,2,2,2,2,0,0,0,2-2,4.8,4.8,0,0,1,4.8-4.8,2,2,0,0,0,2-2,2,2,0,0,0-2-2"/><g class="e"><rect class="a" x="-1167.54" y="-2124.87" width="2800" height="6362"/></g><path class="a" d="M-825.94,79.43a11.5,11.5,0,0,0-11.5-11.5,11.5,11.5,0,0,0-11.5,11.5,11.5,11.5,0,0,0,11.5,11.5,11.5,11.5,0,0,0,11.5-11.5m-11.5,6.38a6.42,6.42,0,0,1-6.38-6.38,6.43,6.43,0,0,1,6.38-6.38,6.43,6.43,0,0,1,6.37,6.38,6.36,6.36,0,0,1-6.37,6.38"/><g class="f"><rect class="a" x="-1167.54" y="-2124.87" width="2800" height="6362"/></g><path class="a" d="M-906.84,22.73a1.7,1.7,0,0,0-.7.1c-10.8,2.2-18.3,9.3-20.1,19-2,11.2.2,21.3,6.5,30.1a3.37,3.37,0,0,0,2.8,1.4,3.06,3.06,0,0,0,2-.7,3.28,3.28,0,0,0,1.4-2.2,4,4,0,0,0-.6-2.6c-5.3-7.3-7-15.4-5.3-24.8,1.2-6.9,6.7-11.9,14.7-13.5a3.41,3.41,0,0,0,2.2-1.5,3.44,3.44,0,0,0,.5-2.6,3.52,3.52,0,0,0-3.4-2.7"/><g class="g"><rect class="a" x="-1167.54" y="-2124.87" width="2800" height="6362"/></g><path class="a" d="M-941.84,130.33a9.71,9.71,0,0,0-9.7,9.7,9.71,9.71,0,0,0,9.7,9.7,9.77,9.77,0,0,0,9.7-9.7,9.65,9.65,0,0,0-9.7-9.7m0,14.93a5.12,5.12,0,0,1-5.13-5.13,5.24,5.24,0,0,1,5.13-5.12,5.24,5.24,0,0,1,5.12,5.12,5.12,5.12,0,0,1-5.12,5.13"/><g class="h"><rect class="a" x="-1167.54" y="-2124.87" width="2800" height="6362"/></g><path class="b" d="M-907.24-214.65c-10.2,2.1-17.3,8.7-19,17.9-2,10.8.1,20.5,6.3,29a2.09,2.09,0,0,0,1.6.8,1.92,1.92,0,0,0,1.2-.4,2,2,0,0,0,.5-2.8c-5.5-7.7-7.3-16.1-5.6-25.9,1.4-7.5,7.3-12.9,15.8-14.7a2.05,2.05,0,0,0,1.6-2.4,2.12,2.12,0,0,0-2.4-1.5"/><g class="i"><rect class="b" x="-1167.54" y="-2363.75" width="2800" height="6362"/></g><path class="b" d="M-811.14-140.45a12.64,12.64,0,0,0-12.61,12.7,2,2,0,0,0,2,2,2,2,0,0,0,2-2,8.69,8.69,0,0,1,8.61-8.7,2,2,0,0,0,2-2,2,2,0,0,0-2-2"/><g class="j"><rect class="b" x="-1167.54" y="-2363.75" width="2800" height="6362"/></g><path class="b" d="M-924.74-131.55a8.81,8.81,0,0,0-8.8,8.8,2,2,0,0,0,2,2,2,2,0,0,0,2-2,4.8,4.8,0,0,1,4.8-4.8,2,2,0,0,0,2-2,2,2,0,0,0-2-2"/><g class="k"><rect class="b" x="-1167.54" y="-2363.75" width="2800" height="6362"/></g><path class="b" d="M-825.94-159.45a11.5,11.5,0,0,0-11.5-11.5,11.5,11.5,0,0,0-11.5,11.5,11.5,11.5,0,0,0,11.5,11.5,11.5,11.5,0,0,0,11.5-11.5m-11.5,6.38a6.42,6.42,0,0,1-6.38-6.38,6.42,6.42,0,0,1,6.38-6.38,6.42,6.42,0,0,1,6.37,6.38,6.36,6.36,0,0,1-6.37,6.38"/><g class="l"><rect class="b" x="-1167.54" y="-2363.75" width="2800" height="6362"/></g><path class="b" d="M-906.84-216.15a1.7,1.7,0,0,0-.7.1c-10.8,2.2-18.3,9.3-20.1,19-2,11.2.2,21.3,6.5,30.1a3.37,3.37,0,0,0,2.8,1.4,3.06,3.06,0,0,0,2-.7,3.28,3.28,0,0,0,1.4-2.2,4,4,0,0,0-.6-2.6c-5.3-7.3-7-15.4-5.3-24.8,1.2-6.9,6.7-11.9,14.7-13.5a3.41,3.41,0,0,0,2.2-1.5,3.44,3.44,0,0,0,.5-2.6,3.52,3.52,0,0,0-3.4-2.7"/><g class="m"><rect class="b" x="-1167.54" y="-2363.75" width="2800" height="6362"/></g><path class="b" d="M-941.84-108.55a9.71,9.71,0,0,0-9.7,9.7,9.71,9.71,0,0,0,9.7,9.7,9.77,9.77,0,0,0,9.7-9.7,9.65,9.65,0,0,0-9.7-9.7m0,14.93A5.12,5.12,0,0,1-947-98.75a5.24,5.24,0,0,1,5.13-5.13,5.24,5.24,0,0,1,5.12,5.13,5.12,5.12,0,0,1-5.12,5.13"/><g class="n"><rect class="b" x="-1167.54" y="-2363.75" width="2800" height="6362"/></g><path class="a" d="M145.46,4.86H124.35A2.45,2.45,0,0,0,121.9,7.3h0a2.45,2.45,0,0,0,2.45,2.45h8.83V26.8H92.92l-18-5.71V15.38l18-5.63h15.23A2.45,2.45,0,0,0,110.6,7.3h0a2.45,2.45,0,0,0-2.45-2.44H92.52L74.88,10.27V9.51a2.45,2.45,0,0,0-2.45-2.45H51.76a2.44,2.44,0,0,0-2.45,2.45V26.28a1.53,1.53,0,0,0,.22.91l5.41,13.27A2.42,2.42,0,0,0,57.18,42h2.55v5H56.5a2.45,2.45,0,0,0-2.45,2.45v2.71a8.13,8.13,0,0,0,16.25,0V49.41A2.45,2.45,0,0,0,67.85,47H64.62V42H67a2.46,2.46,0,0,0,2.24-1.5l5.41-13.27a1.93,1.93,0,0,0,.13-.47,1.47,1.47,0,0,1,.06-.27l0-.16v-.17l17.3,5.42h53.28a8.21,8.21,0,0,0,8.2-8.21V13A8.07,8.07,0,0,0,145.46,4.86ZM65.32,51.69V52a3.23,3.23,0,1,1-6.46,0v-.26Zm.08-14.64H58.87l-3.49-8.49H68.81Zm4.66-13.39H54.21V11.87H70.06Zm78.79-.26a3.31,3.31,0,0,1-3.39,3.31h-7.38v-17h7.38A3.35,3.35,0,0,1,148.85,13Z"/><path class="a" d="M38.12,70.2a.92.92,0,0,0-.43,0c-6.25.71-10.82,4.33-12.25,9.7a21.19,21.19,0,0,0,2.32,17.15,2,2,0,0,0,1.5.9,2.13,2.13,0,0,0,1.16-.26,1.87,1.87,0,0,0,.88-1.21,2.06,2.06,0,0,0-.24-1.45A17.11,17.11,0,0,1,29.21,81c1-3.77,4.35-6.35,8.89-6.91a2,2,0,0,0,1.34-.75,1.77,1.77,0,0,0,.4-1.46,1.85,1.85,0,0,0-1.72-1.64"/><line class="o" x1="113.99" y1="7.26" x2="118.31" y2="7.26"/><path class="a" d="M80.81,172.49a8.28,8.28,0,0,1-4.62-1.44C72,168.29,69,161,67.37,149.35a149.71,149.71,0,0,1-1.28-15.73,4,4,0,0,0-3.91-4.08,3.93,3.93,0,0,0-3.75,4c-.08,5.19-1,31.32-10.1,37.43a8.18,8.18,0,0,1-4.62,1.44,10.14,10.14,0,0,1-3.58-.74l-.25-.12c-6.43-3.31-12.37-17.76-13.76-24.59a111.27,111.27,0,0,1-2.47-18.46v-.64c0-1.39,0-3.87.13-5.39l0-.19v-5.51a7.77,7.77,0,0,0,0-1.14l-.14-.35a34.06,34.06,0,0,0-3.2-6.16c-6.2-8.82-8.33-18.9-6.35-30,1.76-9.66,9.11-16.73,19.68-18.93a30.05,30.05,0,0,1,6.3-.62,35.88,35.88,0,0,1,14.64,3.22,18.68,18.68,0,0,0,7.9,1.78,20.4,20.4,0,0,0,8.4-1.86,38.44,38.44,0,0,1,11.48-3l.25,0c.87-.07,1.67-.15,2.57-.15,9.23,0,18,4.55,22.29,11.58,2.44,4,3.69,8.6,3.95,14.45.18,9.29-2.21,17.12-7.31,23.94a18.07,18.07,0,0,0-1.53,2.43l-1.54,2.67c-.57,3.13-.91,10.18-1.26,17.65L99.69,135c-.09,1.44-.15,2.88-.21,4.34s-.13,3-.22,4.48a56.72,56.72,0,0,1-5,16.74c-1.85,3.69-4.4,7.87-9.35,10.91l-.16.09a1.5,1.5,0,0,1-.47.21A9.18,9.18,0,0,1,80.81,172.49ZM62,122.79a10.67,10.67,0,0,1,10.57,10.74c.17,11.05,2.55,28.82,7.1,31.88a1.76,1.76,0,0,0,1,.33,3.24,3.24,0,0,0,.93-.16c3.27-2.05,5.08-5.06,6.56-8a51.63,51.63,0,0,0,4.48-15.36c.48-5.13,1.32-15.26,1.51-25.21a14.5,14.5,0,0,1,2.1-7.71l.5-.84a32.65,32.65,0,0,1,2-3.13c4.11-5.48,6.07-11.93,6-19.72a20.45,20.45,0,0,0-2.81-10.84c-3.12-5.12-9.64-8.42-16.61-8.42a19.23,19.23,0,0,0-2.17.08,30,30,0,0,0-9.53,2.46,27.4,27.4,0,0,1-11.08,2.45A25.64,25.64,0,0,1,51.94,69a29.19,29.19,0,0,0-11.87-2.7,26.78,26.78,0,0,0-5.07.49c-7.85,1.62-13.26,6.67-14.45,13.5-1.72,9.32-.05,17.47,5.09,24.94a40,40,0,0,1,3.53,6.54l.37.8.19.47a8,8,0,0,1,.58,3.6v5.93c.08,6.38.34,9,1.77,20.63.08.75.26,1.62.41,2.38,1.08,5.43,6.28,17.89,10.25,20a3,3,0,0,0,.88.13,1.48,1.48,0,0,0,.89-.34c4.55-3.05,6.92-20.83,7.09-31.88A10.72,10.72,0,0,1,62,122.79Z"/><path class="a" d="M80.81,172a7.72,7.72,0,0,1-4.34-1.36c-4.07-2.68-7-9.86-8.6-21.35a148.33,148.33,0,0,1-1.28-15.66A4.5,4.5,0,0,0,62.18,129a4.44,4.44,0,0,0-4.25,4.5c-.08,5.14-1,31-9.88,37a7.71,7.71,0,0,1-4.34,1.35,9.42,9.42,0,0,1-3.4-.71l-.22-.1c-6.28-3.23-12.11-17.5-13.48-24.24a111.84,111.84,0,0,1-2.46-18.38v-.63a52.38,52.38,0,0,1,.14-5.39l-.05-.27v-5.42a7.87,7.87,0,0,0-.06-1.28l-.16-.4a33.82,33.82,0,0,0-3.25-6.25c-6.12-8.71-8.23-18.67-6.26-29.6,1.71-9.45,8.92-16.38,19.28-18.53a29.77,29.77,0,0,1,6.2-.61,35.27,35.27,0,0,1,14.44,3.18,19.12,19.12,0,0,0,8.1,1.82,20.84,20.84,0,0,0,8.6-1.9,38.2,38.2,0,0,1,11.34-2.93l.24,0c.85-.08,1.65-.15,2.52-.15,9.06,0,17.64,4.45,21.86,11.34,2.39,3.93,3.63,8.45,3.89,14.22.17,9.16-2.19,16.88-7.22,23.62a17,17,0,0,0-1.57,2.48l-1.57,2.73c-.6,3.13-.93,10.28-1.29,17.84L99.19,135c-.09,1.46-.15,2.95-.21,4.44s-.13,2.91-.21,4.38a56.32,56.32,0,0,1-5,16.54c-1.81,3.63-4.32,7.73-9.17,10.71l-.16.09a.84.84,0,0,1-.3.14A9.06,9.06,0,0,1,80.81,172ZM62,123.29a10.18,10.18,0,0,1,10.07,10.25c.18,11.48,2.57,29.09,7.32,32.28a2.18,2.18,0,0,0,1.25.42,3.51,3.51,0,0,0,1.14-.21c3.4-2.1,5.28-5.2,6.79-8.23a51.9,51.9,0,0,0,4.53-15.52c.48-5.14,1.33-15.29,1.52-25.27a13.94,13.94,0,0,1,2-7.46l.5-.84a29.06,29.06,0,0,1,2-3.09c4.18-5.58,6.17-12.13,6.08-20a20.87,20.87,0,0,0-2.89-11.09c-3.2-5.27-9.89-8.66-17-8.66a20.59,20.59,0,0,0-2.23.08,30.69,30.69,0,0,0-9.68,2.5,26.84,26.84,0,0,1-10.87,2.41,25.19,25.19,0,0,1-10.38-2.24,29.61,29.61,0,0,0-12.07-2.75,26.91,26.91,0,0,0-5.16.5C26.84,68,21.29,73.2,20.06,80.25c-1.74,9.45,0,17.72,5.17,25.3A40.78,40.78,0,0,1,28.72,112l.36.79.18.45a7.49,7.49,0,0,1,.55,3.41v5.93c.08,6.41.34,9,1.77,20.69.08.76.25,1.6.42,2.42,1.13,5.66,6.34,18.13,10.5,20.33a3.45,3.45,0,0,0,1.12.19,2,2,0,0,0,1.17-.42c4.74-3.19,7.13-20.8,7.31-32.29A10.22,10.22,0,0,1,62,123.29Z"/></svg>